<?xml version="1.0" encoding="UTF-8" standalone="no"?>
<svg
   xmlns:dc="http://purl.org/dc/elements/1.1/"
   xmlns:cc="http://creativecommons.org/ns#"
   xmlns:rdf="http://www.w3.org/1999/02/22-rdf-syntax-ns#"
   xmlns:svg="http://www.w3.org/2000/svg"
   xmlns="http://www.w3.org/2000/svg"
   xmlns:sodipodi="http://sodipodi.sourceforge.net/DTD/sodipodi-0.dtd"
   xmlns:inkscape="http://www.inkscape.org/namespaces/inkscape"
   sodipodi:docname="TOPBoven.svg"
   inkscape:version="1.0 (4035a4fb49, 2020-05-01)"
   id="svg3756"
   version="1.1"
   viewBox="0 0 580.09998 291.32739"
   height="291.32739mm"
   width="580.09998mm">
  <metadata
     id="metadata191">
    <rdf:RDF>
      <cc:Work
         rdf:about="">
        <dc:format>image/svg+xml</dc:format>
        <dc:type
           rdf:resource="http://purl.org/dc/dcmitype/StillImage" />
        <dc:title></dc:title>
      </cc:Work>
    </rdf:RDF>
  </metadata>
  <sodipodi:namedview
     inkscape:document-rotation="0"
     inkscape:snap-global="false"
     inkscape:current-layer="g3889"
     inkscape:window-maximized="1"
     inkscape:window-y="-8"
     inkscape:window-x="-8"
     inkscape:window-height="1017"
     inkscape:window-width="1920"
     inkscape:cy="286.80585"
     inkscape:cx="2055.0788"
     inkscape:zoom="0.1767767"
     showgrid="false"
     inkscape:document-units="mm"
     inkscape:pagecheckerboard="0"
     inkscape:pageopacity="0.0"
     inkscape:pageshadow="2"
     borderopacity="1.0"
     bordercolor="#666666"
     pagecolor="#ffffff"
     id="namedview3758" />
  <defs
     id="defs3753">
    <marker
       style="overflow:visible"
       refY="0"
       refX="0"
       orient="auto"
       id="DistanceX">
      <path
         id="path3762"
         style="stroke:#000000;stroke-width:0.5"
         d="M 3,-3 -3,3 M 0,-5 V 5" />
    </marker>
    <pattern
       y="0"
       x="0"
       height="8"
       width="8"
       patternUnits="userSpaceOnUse"
       id="Hatch">
      <path
         id="path3765"
         linecap="square"
         stroke-width="0.25"
         stroke="#000000"
         d="M8 4 l-4,4" />
      <path
         id="path3767"
         linecap="square"
         stroke-width="0.25"
         stroke="#000000"
         d="M6 2 l-4,4" />
      <path
         id="path3769"
         linecap="square"
         stroke-width="0.25"
         stroke="#000000"
         d="M4 0 l-4,4" />
    </pattern>
    <symbol
       id="*Model_Space" />
    <symbol
       id="*Paper_Space" />
    <symbol
       id="*Paper_Space0" />
    <clipPath
       id="clipPath3140"
       clipPathUnits="userSpaceOnUse">
      <rect
         y="-758.94904"
         x="-657.92474"
         height="1095.6851"
         width="2191.748"
         id="rect3142"
         style="fill:none;stroke:#ff0000;stroke-width:0.377953" />
    </clipPath>
    <clipPath
       id="clipPath3279"
       clipPathUnits="userSpaceOnUse">
      <rect
         y="-762.94904"
         x="-657.92474"
         height="1096.063"
         width="2192.126"
         id="rect3281"
         style="fill:none;stroke:#ff0000;stroke-width:0.377953" />
    </clipPath>
    <clipPath
       clipPathUnits="userSpaceOnUse"
       id="clipPath1607">
      <rect
         style="fill:none;stroke:#ff0000;stroke-width:0.377954;stroke-miterlimit:4;stroke-dasharray:none;stroke-opacity:1"
         id="rect1609"
         width="2550.1809"
         height="1187.1439"
         x="-854.112"
         y="337.11398" />
    </clipPath>
    <clipPath
       clipPathUnits="userSpaceOnUse"
       id="clipPath1603">
      <rect
         style="fill:none;stroke:#ff0000;stroke-width:0.377954;stroke-miterlimit:4;stroke-dasharray:none;stroke-opacity:1"
         id="rect1605"
         width="2550.1809"
         height="1187.1439"
         x="-854.112"
         y="337.11398" />
    </clipPath>
    <clipPath
       clipPathUnits="userSpaceOnUse"
       id="clipPath1599">
      <rect
         style="fill:none;stroke:#ff0000;stroke-width:0.377954;stroke-miterlimit:4;stroke-dasharray:none;stroke-opacity:1"
         id="rect1601"
         width="2550.1809"
         height="1187.1439"
         x="-854.112"
         y="337.11398" />
    </clipPath>
    <clipPath
       clipPathUnits="userSpaceOnUse"
       id="clipPath1571">
      <rect
         style="fill:none;stroke:#ff0000;stroke-width:0.377954;stroke-miterlimit:4;stroke-dasharray:none;stroke-opacity:1"
         id="rect1573"
         width="2550.1809"
         height="1187.1439"
         x="-854.112"
         y="337.11398" />
    </clipPath>
    <clipPath
       clipPathUnits="userSpaceOnUse"
       id="clipPath1539">
      <rect
         style="fill:none;stroke:#ff0000;stroke-width:0.377954;stroke-miterlimit:4;stroke-dasharray:none;stroke-opacity:1"
         id="rect1541"
         width="2550.1809"
         height="1187.1439"
         x="-854.112"
         y="337.11398" />
    </clipPath>
    <clipPath
       clipPathUnits="userSpaceOnUse"
       id="clipPath1419">
      <rect
         style="fill:none;stroke:#ff0000;stroke-width:0.377954;stroke-miterlimit:4;stroke-dasharray:none;stroke-opacity:1"
         id="rect1421"
         width="2550.1809"
         height="1187.1439"
         x="-854.112"
         y="337.11398" />
    </clipPath>
    <clipPath
       clipPathUnits="userSpaceOnUse"
       id="clipPath1415">
      <rect
         style="fill:none;stroke:#ff0000;stroke-width:0.377954;stroke-miterlimit:4;stroke-dasharray:none;stroke-opacity:1"
         id="rect1417"
         width="2550.1809"
         height="1187.1439"
         x="-854.112"
         y="337.11398" />
    </clipPath>
    <clipPath
       clipPathUnits="userSpaceOnUse"
       id="clipPath1319">
      <rect
         style="fill:none;stroke:#ff0000;stroke-width:0.377954;stroke-miterlimit:4;stroke-dasharray:none;stroke-opacity:1"
         id="rect1321"
         width="2550.1809"
         height="1187.1439"
         x="-854.112"
         y="337.11398" />
    </clipPath>
    <clipPath
       clipPathUnits="userSpaceOnUse"
       id="clipPath1291">
      <rect
         style="fill:none;stroke:#ff0000;stroke-width:0.377954;stroke-miterlimit:4;stroke-dasharray:none;stroke-opacity:1"
         id="rect1293"
         width="2550.1809"
         height="1187.1439"
         x="-854.112"
         y="337.11398" />
    </clipPath>
    <clipPath
       clipPathUnits="userSpaceOnUse"
       id="clipPath1287">
      <rect
         style="fill:none;stroke:#ff0000;stroke-width:0.377954;stroke-miterlimit:4;stroke-dasharray:none;stroke-opacity:1"
         id="rect1289"
         width="2550.1809"
         height="1187.1439"
         x="-854.112"
         y="337.11398" />
    </clipPath>
    <clipPath
       clipPathUnits="userSpaceOnUse"
       id="clipPath1283">
      <rect
         style="fill:none;stroke:#ff0000;stroke-width:0.377954;stroke-miterlimit:4;stroke-dasharray:none;stroke-opacity:1"
         id="rect1285"
         width="2550.1809"
         height="1187.1439"
         x="-854.112"
         y="337.11398" />
    </clipPath>
    <clipPath
       clipPathUnits="userSpaceOnUse"
       id="clipPath1279">
      <rect
         style="fill:none;stroke:#ff0000;stroke-width:0.377954;stroke-miterlimit:4;stroke-dasharray:none;stroke-opacity:1"
         id="rect1281"
         width="2550.1809"
         height="1187.1439"
         x="-854.112"
         y="337.11398" />
    </clipPath>
    <clipPath
       clipPathUnits="userSpaceOnUse"
       id="clipPath1275">
      <rect
         style="fill:none;stroke:#ff0000;stroke-width:0.377954;stroke-miterlimit:4;stroke-dasharray:none;stroke-opacity:1"
         id="rect1277"
         width="2550.1809"
         height="1187.1439"
         x="-854.112"
         y="337.11398" />
    </clipPath>
    <clipPath
       clipPathUnits="userSpaceOnUse"
       id="clipPath1271">
      <rect
         style="fill:none;stroke:#ff0000;stroke-width:0.377954;stroke-miterlimit:4;stroke-dasharray:none;stroke-opacity:1"
         id="rect1273"
         width="2550.1809"
         height="1187.1439"
         x="-854.112"
         y="337.11398" />
    </clipPath>
  </defs>
  <g
     transform="translate(231.11804,299.05542)"
     id="layer1"
     inkscape:groupmode="layer"
     inkscape:label="Layer 1">
    <g
       style="fill:#0000ff;stroke:#0000ff"
       transform="matrix(0.26458333,0,0,0.26458333,-56.992122,-97.14182)"
       id="g3889"
       inkscape:label="0">
      <path
         style="fill:none;stroke:#0000ff;stroke-width:3.77953;stroke-linecap:butt;stroke-linejoin:miter;stroke-miterlimit:4;stroke-dasharray:none;stroke-opacity:1"
         d="m 187.97099,19.30051 c -303.94074,-142.33419 -303.94074,-142.33419 -303.94074,-142.33419 v 0 0"
         id="path2303" />
      <path
         style="fill:none;stroke:#0000ff;stroke-width:3.77953;stroke-linecap:butt;stroke-linejoin:miter;stroke-miterlimit:4;stroke-dasharray:none;stroke-opacity:1"
         d="M -201.82875,148.84056 187.97099,19.30051"
         id="path2305" />
      <path
         style="fill:none;stroke:#0000ff;stroke-width:3.77953;stroke-linecap:butt;stroke-linejoin:miter;stroke-miterlimit:4;stroke-dasharray:none;stroke-opacity:1"
         d="M 187.97099,19.30051 519.38657,129.64944"
         id="path2307" />
      <path
         style="fill:none;stroke:#0000ff;stroke-width:3.77953;stroke-linecap:butt;stroke-linejoin:miter;stroke-miterlimit:4;stroke-dasharray:none;stroke-opacity:1"
         d="M 485.04304,-196.59966 187.97099,19.30051"
         id="path2309" />
      <path
         style="fill:none;stroke:#0000ff;stroke-width:3.77953;stroke-linecap:butt;stroke-linejoin:miter;stroke-miterlimit:4;stroke-dasharray:none;stroke-opacity:1"
         d="M 519.38657,129.64944 920.704,30.00635"
         id="path2313"
         sodipodi:nodetypes="cc" />
      <path
         style="fill:none;stroke:#0000ff;stroke-width:3.77953;stroke-linecap:butt;stroke-linejoin:miter;stroke-miterlimit:4;stroke-dasharray:none;stroke-opacity:1"
         d="M 485.04304,-196.59966 923.53243,30.00635"
         id="path2315"
         sodipodi:nodetypes="cc" />
      <path
         style="fill:none;stroke:#0000ff;stroke-width:3.77953;stroke-linecap:butt;stroke-linejoin:miter;stroke-miterlimit:4;stroke-dasharray:none;stroke-opacity:1"
         d="M 579.83125,335.95028 519.04101,129.82583"
         id="path2317" />
      <path
         style="fill:none;stroke:#0000ff;stroke-width:3.77953;stroke-linecap:butt;stroke-linejoin:miter;stroke-miterlimit:4;stroke-dasharray:none;stroke-opacity:1"
         d="M 999.93027,337.40132 926.47342,43.822669 923.0753,30.241666"
         id="path2319"
         sodipodi:nodetypes="ccc" />
      <path
         style="fill:none;stroke:#0000ff;stroke-width:3.77953;stroke-linecap:butt;stroke-linejoin:miter;stroke-miterlimit:4;stroke-dasharray:none;stroke-opacity:1"
         d="m 519.38657,129.64944 -34.34353,-326.2491"
         id="path3235" />
      <path
         style="fill:none;stroke:#0000ff;stroke-width:3.77953;stroke-linecap:butt;stroke-linejoin:miter;stroke-miterlimit:4;stroke-dasharray:none;stroke-opacity:1"
         d="M 323.21477,339.31038 519.40199,129.66422"
         id="path3237" />
      <path
         style="fill:none;stroke:#0000ff;stroke-width:3.77953;stroke-linecap:butt;stroke-linejoin:miter;stroke-miterlimit:4;stroke-dasharray:none;stroke-opacity:1"
         d="M 27.608964,339.38036 -201.77816,148.78535"
         id="path3239" />
      <path
         style="fill:none;stroke:#0000ff;stroke-width:3.77953;stroke-linecap:butt;stroke-linejoin:miter;stroke-miterlimit:4;stroke-dasharray:none;stroke-opacity:1"
         d="m -201.82875,148.84056 2.9303,-144.0218166 82.9287,-127.8524234 v 0"
         id="path5222" />
      <circle
         style="fill:none;fill-opacity:1;stroke:#ff0000;stroke-width:0.44187;stroke-miterlimit:4;stroke-dasharray:none;stroke-opacity:1"
         id="path2854-9-1-92"
         cx="249.4928"
         cy="37.111721"
         r="22.267254" />
      <circle
         style="fill:none;fill-opacity:1;stroke:#ff0000;stroke-width:0.44187;stroke-miterlimit:4;stroke-dasharray:none;stroke-opacity:1"
         id="path2854-9-1-77"
         cx="306.76843"
         cy="60.446247"
         r="22.267254" />
      <circle
         style="fill:none;fill-opacity:1;stroke:#ff0000;stroke-width:0.44187;stroke-miterlimit:4;stroke-dasharray:none;stroke-opacity:1"
         id="path2854-9-1-84"
         cx="366.8725"
         cy="76.002594"
         r="22.267254" />
      <circle
         style="fill:none;fill-opacity:1;stroke:#ff0000;stroke-width:0.44187;stroke-miterlimit:4;stroke-dasharray:none;stroke-opacity:1"
         id="path2854-9-1-19"
         cx="438.29031"
         cy="100.04423"
         r="22.267254" />
      <circle
         r="22.110237"
         cy="-123.91349"
         cx="-115.05572"
         id="path2510"
         style="fill:none;stroke:#ff0000;stroke-width:0.755906;stroke-miterlimit:4;stroke-dasharray:none;stroke-opacity:1" />
      <circle
         r="22.110237"
         cy="-73.001793"
         cx="-146.8755"
         id="path2510-9"
         style="fill:none;stroke:#ff0000;stroke-width:0.755906;stroke-miterlimit:4;stroke-dasharray:none;stroke-opacity:1" />
      <circle
         style="fill:none;stroke:#ff0000;stroke-width:0.755906;stroke-miterlimit:4;stroke-dasharray:none;stroke-opacity:1"
         id="path2510-9-6"
         cx="-180.81662"
         cy="-22.797215"
         r="22.110237" />
      <circle
         r="22.110237"
         cy="31.735794"
         cx="-198.61993"
         id="path2510-9-6-4"
         style="fill:none;stroke:#ff0000;stroke-width:0.755906;stroke-miterlimit:4;stroke-dasharray:none;stroke-opacity:1" />
      <circle
         r="22.110237"
         cy="85.975906"
         cx="-201.08009"
         id="path2510-9-6-2"
         style="fill:none;stroke:#ff0000;stroke-width:0.755906;stroke-miterlimit:4;stroke-dasharray:none;stroke-opacity:1" />
      <path
         clip-path="url(#clipPath1539)"
         id="path2854-9-1-97-8"
         style="fill:none;fill-opacity:1;stroke:#ff0000;stroke-width:0.44187;stroke-miterlimit:4;stroke-dasharray:none;stroke-opacity:1"
         d="m 338.93519,344.70319 a 22.267254,22.267254 0 0 1 -22.26725,22.26725 22.267254,22.267254 0 0 1 -22.26726,-22.26725 22.267254,22.267254 0 0 1 22.26726,-22.26726 22.267254,22.267254 0 0 1 22.26725,22.26726"
         transform="rotate(-178.73467,320.73254,338.1319)" />
      <path
         clip-path="url(#clipPath1419)"
         id="path2854-9-1-99-9"
         style="fill:none;fill-opacity:1;stroke:#ff0000;stroke-width:0.44187;stroke-miterlimit:4;stroke-dasharray:none;stroke-opacity:1"
         d="m 606.92869,339.75342 a 22.267254,22.267254 0 0 1 -22.26725,22.26725 22.267254,22.267254 0 0 1 -22.26726,-22.26725 22.267254,22.267254 0 0 1 22.26726,-22.26726 22.267254,22.267254 0 0 1 22.26725,22.26726"
         transform="rotate(176.63426,585.37351,337.45748)" />
      <circle
         style="fill:none;stroke:#ff0000;stroke-width:0.755906;stroke-miterlimit:4;stroke-dasharray:none;stroke-opacity:1"
         id="path2510-62-9-32"
         cx="400.03595"
         cy="249.69875"
         r="22.110237" />
      <path
         style="fill:none;stroke:#0000ff;stroke-width:3.26929;stroke-linecap:butt;stroke-linejoin:miter;stroke-miterlimit:4;stroke-dasharray:none;stroke-opacity:1"
         d="m 325.30849,335.31678 7.54319,-4.0572"
         id="path2674-2" />
      <path
         style="fill:none;stroke:#000000;stroke-width:0.999999px;stroke-linecap:butt;stroke-linejoin:miter;stroke-opacity:1"
         d="m -170.3947,336.32822 0.0884,7.07106"
         id="path5248" />
      <path
         id="path615"
         style="fill:none;fill-opacity:1;stroke:#0000ff;stroke-width:1.93656;stroke-opacity:1"
         d="m 1339.2408,337.41349 c 0.01,-0.88972 -0.1926,-1.62166 -0.6249,-2.15714 -1.2478,-1.5457 -8.0064,-4.75578 -15.0176,-7.13281 -31.3258,-10.62034 -39.5688,-17.16288 -59.7305,-47.40431 -6.2863,-9.42914 -14.3685,-19.44838 -17.9589,-22.26367 -6.717,-5.26701 -41.2725,-21.09752 -64.9336,-29.74805 -10.8895,-3.98118 -19.0394,-5.20002 -43.9296,-6.5664 -16.8076,-0.92271 -36.2135,-2.26352 -43.1231,-2.98047 -10.4822,-1.08763 -14.0797,-0.61301 -21.7285,2.86523 -5.0417,2.29276 -12.1762,4.16797 -15.8535,4.16797 h -6.6856 l 1.2266,-7.89453 c 1.5846,-10.18732 -0.9806,-15.07486 -16.834,-32.07617 -10.6562,-11.42784 -12.5547,-14.52019 -12.5547,-20.44532 0,-10.2315 7.2813,-21.35061 24.3672,-37.21093 20.0114,-18.57611 28.3951,-34.296807 30.8203,-57.794917 0.9302,-9.0123 3.4863,-20.36293 5.6797,-25.22266 2.3673,-5.2447 4.0023,-12.90706 4.0293,-18.85352 0.031,-7.54642 1.2185,-11.66371 4.8106,-16.68945 10.7841,-15.08812 13.8591,-24.96304 19.1113,-61.365227 3.368,-23.34249 2.7792,-29.73128 -3.8262,-41.51953 -5.2038,-9.286776 -12.1574,-14.875666 -28.2597,-22.707026 -12.8254,-6.23764 -20.6294,-7.01173 -35.3868,-3.50976 -9.3984,2.23025 -9.5977,2.17838 -17.8125,-4.73242 -4.8043,-4.04166 -11.5292,-7.57888 -15.9472,-8.38672 -10.38572,-1.89906 -20.71462,-8.02975 -24.43362,-14.50196 -1.6941,-2.94827 -4.02955,-11.47961 -5.18945,-18.95898 -2.9987,-19.33711 -6.4984,-24.56868 -19.164,-28.65234 -5.7326,-1.84831 -12.7232,-3.41447 -15.5352,-3.48047 -2.812,-0.066 -20.4315,3.95333 -39.1543,8.93164 -30.9278,8.22358 -35.4518,8.95393 -49.4687,7.97461 -8.4855,-0.59286 -19.005,-2.5493 -23.377,-4.34766 -6.8296,-2.80931 -8.2324,-4.41643 -9.959,-11.41016 -4.4733,-18.1194 -8.8427,-21.67224 -30.541,-24.83593 -17.2723,-2.51835 -20.12,-4.15575 -23.0156,-13.23242 -1.2946,-4.05807 -5.8752,-12.53563 -10.1797,-18.83791 l -7.8281,-11.45898 0.5605,-30.7832 0.5606,-30.78321 -6.1426,-9.5332 c -7.8891,-12.24435 -19.3329,-20.84961 -27.7285,-20.84961 -10.3835,0 -19.7939,10.41189 -28.1524,31.14258 -7.6493,18.97218 -10.1066,22.13267 -20.7558,26.70703 -9.2991,3.99437 -17.8174,3.75171 -27.5371,-0.78516 -13.3338,-6.22377 -14.9672,-10.6507 -12.293,-33.33398 1.7105,-14.50768 1.7323,-20.48406 0.088,-24.19531 -3.6777,-8.29808 -17.847,-14.32003 -31.7383,-14.85742 l -5e-4,-8e-5 v 0 c -4.6304,-0.17913 -9.2308,0.24963 -13.4004,1.4082 -11.3199,3.14538 -26.766,18.35562 -35.7461,35.19726 -4.0618,7.61761 -9.7676,16.19632 -12.6797,19.06446 -5.0591,4.98294 -5.7301,5.11825 -15.1074,3.05078 -5.3975,-1.19001 -17.508,-2.16406 -26.9101,-2.16406 h -17.09581 v -5.64258 c 0,-3.10404 1.2896,-9.40088 2.8653,-13.99219 6.6046,-19.24456 1.3123,-24.63224 -17.3086,-17.62305 -6.2378,2.34796 -19.3081,7.12319 -29.0449,10.61328 -10.6827,3.82915 -19.9426,8.55251 -23.3516,11.91016 -11.8033,11.6254 -12.3881,29.13554 -1.8555,55.56836 8.1016,20.33179 7.1376,23.07446 -8.0136,22.78125 -7.575,-0.14661 -15.3536,-2.41304 -29.3008,-8.53906 -10.443,-4.58685 -21.5895,-8.76609 -24.7695,-9.28711 -8.4026,-1.37647 -17.3517,5.69762 -29.1036,23.00586 -24.58615,36.21088 -26.28508,38.17534 -46.61912,53.92579 -11.15375,8.63951 -23.18563,18.03108 -26.73828,20.87109 -3.55259,2.84 -20.21781,12.34004 -37.0332,21.10938 l -30.57227,15.94336 -16.2207,-0.0234 c -18.26701,-0.0263 -35.3899,-3.95927 -40.13672,-9.21875 -1.74788,-1.93668 -4.72688,-7.93819 -6.61914,-13.33789 -4.92229,-14.04628 -16.052988,-24.17547 -39.65819,-36.08594 -34.55925,-17.43755 -60.88675,-21.63607 -81.1328189,-12.93945 -10.8779721,4.67258 -15.2751021,10.06923 -19.7753921,24.26953 -2.261549,7.13605 -5.199609,14.16456 -6.527349,15.61914 -3.23106,3.53967 -19.52946,3.26885 -32.25781,-0.53516 -11.518,-3.44228 -19.15732,-8.93621 -22.96289,-16.51757 -3.66412,-7.29959 -5.52584,-32.74795 -3.25586,-44.49805 1.43146,-7.40957 1.18842,-13.4286 -0.98828,-24.54298 -4.19173,-21.40328 -4.92615,-21.80548 -24.01954,-13.14062 -26.26691,11.92029 -41.00031,17.00298 -75.99414,26.21485 -18.38334,4.83927 -38.34822,10.83625 -44.36719,13.32617 -18.03661,7.46138 -39.35901,20.95054 -53.77929,34.02344 -15.33699,13.90395 -43.40618,33.46489 -81.38867,56.71875 -74.10721,45.370316 -103.32709,62.810226 -115.49219,68.931626 -7.38681,3.71699 -15.79478,9.04036 -18.68359,11.83008 -4.77797,4.61407 -5.24779,6.32581 -5.21289,18.941397 0.0748,26.99711 2.63819,37.3524405 14.06836,56.83204 17.42201,29.69093 18.28014,36.07504 7.85742,58.43359 -7.59303,16.28839 -8.5123,26.427187 -3.02539,33.376947 3.19584,4.04787 3.52476,6.79961 2.58984,21.70703 -1.80425,28.76917 2.36696,33.54914 37.37305,42.82813 6.2206,1.6489 12.88862,6.50527 26.73828,19.46875 15.39544,14.41039 19.67683,19.76613 25.8457,32.33789 5.29727,10.79545 9.89994,17.09697 16.23438,22.22266 4.86262,3.9347 10.13131,8.55225 11.70703,10.26171 8.40133,9.11449 14.00399,11.91016 23.87305,11.91016 13.45654,0 19.07102,-4.68076 23.11523,-19.27344 3.91864,-14.13966 9.79658,-20.5393 26.54492,-28.90234 12.47131,-6.22736 61.07912,-20.54883 69.74609,-20.54883 2.77522,0 6.92138,4.86865 14.63086,17.18164 10.47965,16.73739 28.87357,41.14474 38.35546,50.89258 3.9835,4.09522 4.45571,5.79555 3.07813,11.08789 -0.89495,3.43822 -1.60061,14.20439 -1.57031,23.92384 0.0434,13.90272 0.68211,18.63635 4.84043,29.40778" />
      <path
         id="path1278"
         style="fill:none;fill-opacity:1;stroke:#0000ff;stroke-width:1.93656;stroke-opacity:1"
         d="m -157.69621,337.30893 c -5.91148,-15.14048 -6.60911,-24.4936 -4.66827,-55.55068 0.59081,-9.45384 0.12568,-10.76898 -6.26758,-17.67187 -11.09111,-11.97514 -30.23121,-37.75927 -36.48242,-49.14649 -8.44961,-15.39177 -15.66564,-22.125 -23.70899,-22.125 -10.30524,0 -63.28122,15.07971 -76.86132,21.87891 -17.02369,8.52328 -25.57928,17.94441 -30.72461,33.83984 l -4.20898,13.00391 h -7.36719 c -6.37849,0 -9.32572,-1.77646 -21.94922,-13.23047 -11.31461,-10.26641 -16.26104,-16.53459 -22.08398,-27.98047 -6.04172,-11.8759 -11.20189,-18.26252 -26.47852,-32.77344 -16.10782,-15.30035 -20.65129,-18.52152 -30.07812,-21.33007 -21.04312,-6.26942 -27.38733,-9.10717 -29.51758,-13.19922 -1.41318,-2.71461 -1.70458,-9.99692 -0.85938,-21.50781 1.14573,-15.60285 0.87427,-17.9846 -2.61718,-23.0254 -5.18576,-7.48693 -5.00146,-9.193947 2.79101,-25.910147 11.0037,-23.60486 9.38648,-35.613 -9.14062,-67.85352 -9.69221,-16.8661896 -12.7917,-28.9973 -12.8125,-50.15234 l -0.0117,-11.27149 17.46289,-9.015617 c 9.60459,-4.959 24.86097,-13.67596 33.90234,-19.37108 9.04137,-5.69513 36.38361,-22.391236 60.75977,-37.101566 57.7061,-34.82399 85.45369,-53.45448 99.77344,-66.98828 25.09405,-23.71674 49.06668,-35.83517 95.40428,-48.23047 37.98356,-10.1606 48.03761,-13.46729 71.44532,-23.4961 8.19559,-3.51131 15.50091,-5.76582 16.23437,-5.00977 0.73347,0.75605 1.3664,15.21581 1.4043,32.13283 0.0438,19.46385 0.99141,34.0024 2.58398,39.59375 5.39851,18.95331 28.70815,32.06631 57.00782,32.07031 18.737219,0.002 19.201859,-0.45367 29.181649,-28.50781 3.65304,-10.26903 4.6917,-11.44592 12.9531221,-14.69141 10.6363601,-4.17847 26.2916389,-4.498 39.5410189,-0.80859 23.69249,6.59739 63.93805,30.60809 64.00195,38.18359 0.0103,1.22426 2.13588,6.9025 4.72461,12.61914 4.16091,9.18832 5.98617,10.99952 15.73828,15.61328 9.54643,4.51644 14.11739,5.32104 33.95117,5.97852 l 22.91992,0.75976 32.92188,-16.94726 c 18.1068,-9.32093 37.9978,-21.10571 44.20312,-26.18945 6.20537,-5.0838 18.3537,-14.5306 26.9961,-20.99219 15.72397,-11.75615 24.55655,-22.06211 39.62305,-46.22852 4.3942,-7.04834 10.9941,-15.80811 14.666,-19.4668 l 6.6758,-6.65235 8.1797,3.48633 c 34.5836,14.74031 36.8849,15.45282 50.5117,15.63282 11.9833,0.15828 14.2969,-0.41106 18.623,-4.58008 6.7913,-6.54471 6.3907,-14.13001 -1.9023,-36.05665 -5.5192,-14.59302 -6.6736,-19.96284 -5.9746,-27.79101 1.1026,-12.34854 6.106,-16.73048 25.8457,-22.62696 7.9749,-2.3822 17.8431,-6.08331 21.9297,-8.22656 4.0864,-2.14325 7.875,-3.43908 8.4199,-2.8789 0.5449,0.56018 0.033,3.84663 -1.1387,7.30273 -1.1719,3.45609 -2.1308,9.99028 -2.1308,14.52148 0,13.1803 3.9395,15.46974 29.31831,17.02735 11.7118,0.7188 25.1615,1.90046 29.8887,2.62695 12.5514,1.92895 19.3224,-3.6132 33.4004,-27.3418 17.7401,-29.90116 32.9697,-38.16593 53.293,-28.92382 l 8.957,4.07226 -1.5078,10.38477 c -2.9281,20.1622 -1.9214,35.31716 2.8008,42.12304 6.3438,9.14324 21.7407,16.37712 34.7421,16.32422 20.7824,-0.0845 35.7249,-12.34874 44.8028,-36.77148 5.5208,-14.85315 12.266,-24.05469 17.6328,-24.05469 1.819,0 7.461,4.42973 12.5371,9.84375 l 9.2285,9.84375 -0.5078,31.88281 c -0.5507,34.56109 -0.6681,34.03715 11.1465,49.94923 3.5692,4.80716 6.4902,10.042 6.4902,11.63282 0,6.03643 5.8239,14.07622 12.586,17.375 3.8635,1.88474 13.042,4.20298 20.3964,5.15234 7.3545,0.94935 14.4708,2.66385 15.8125,3.80859 1.3418,1.14474 3.4572,6.44959 4.7032,11.78907 3.9627,16.98152 14.4363,22.76841 44.8652,24.79101 15.7686,1.04812 19.4007,0.53362 43.9297,-6.23047 40.7251,-11.23034 42.9446,-11.58151 53.5976,-8.48828 10.3621,3.00874 11.8166,5.56788 15.8399,27.875 3.4252,18.99081 14.45115,30.40076 33.41587,34.58203 6.3046,1.39 11.9998,4.442 17.0587,9.14063 8.2338,7.64731 6.6788,7.48847 34.1133,3.50195 7.623,-1.10771 10.5761,-0.40316 21.0097,5.00781 24.6326,12.774696 27.7379,19.507706 23.4551,50.873036 -4.0327,29.533737 -7.1507,40.225887 -15.2597,52.33007743 -5.8494,8.73128997 -7.3366,12.97424957 -8.3848,23.92968957 -0.7008,7.32416 -3.1042,17.73506 -5.3399,23.13476 -2.2358,5.3997 -4.5593,16.00293 -5.164,23.5625 -1.6057,20.07725 -7.2414,30.267807 -28.3164,51.208977 -19.5213,19.39729 -26.2031,30.56566 -26.2031,43.78907 0,10.8591 1.8441,14.16932 17.2109,30.88672 l 12.8379,13.96679 -0.9219,9.85938 c -0.7661,8.19629 -0.2406,10.5617 3.1191,14.01562 5.6166,5.77404 22.1747,5.74384 33.2422,-0.0605 7.7684,-4.0743 8.7418,-4.13013 29.0508,-1.63477 11.5572,1.42008 29.6065,2.68895 40.1113,2.82031 21.3818,0.26738 26.3505,1.71789 66.6738,19.45313 13.4326,5.90792 26.5862,12.80135 29.2304,15.32031 2.6442,2.51901 9.1753,11.20709 14.5137,19.30664 18.9835,28.80159 30.8352,38.89327 55.2715,47.06251 1.2525,0.41872 2.4648,0.85797 3.612,1.30475" />
      <circle
         r="22.110237"
         cy="187.51707"
         cx="-151.77988"
         id="path2510-62-9-9-5"
         style="fill:none;stroke:#ff0000;stroke-width:0.755906;stroke-miterlimit:4;stroke-dasharray:none;stroke-opacity:1" />
      <circle
         r="22.110237"
         cy="228.16698"
         cx="-103.46686"
         id="path2510-62-9-9-1"
         style="fill:none;stroke:#ff0000;stroke-width:0.755906;stroke-miterlimit:4;stroke-dasharray:none;stroke-opacity:1" />
      <circle
         r="22.110237"
         cy="268.81696"
         cx="-55.153866"
         id="path2510-62-9-9-2"
         style="fill:none;stroke:#ff0000;stroke-width:0.755906;stroke-miterlimit:4;stroke-dasharray:none;stroke-opacity:1" />
      <circle
         r="22.110237"
         cy="309.46686"
         cx="-6.8408785"
         id="path2510-62-9-9-28"
         style="fill:none;stroke:#ff0000;stroke-width:0.755906;stroke-miterlimit:4;stroke-dasharray:none;stroke-opacity:1" />
      <circle
         r="22.110237"
         cy="146.86719"
         cx="-200.0929"
         id="path2510-62-9-9-0"
         style="fill:none;stroke:#ff0000;stroke-width:0.755906;stroke-miterlimit:4;stroke-dasharray:none;stroke-opacity:1" />
      <circle
         style="fill:none;stroke:#ff0000;stroke-width:0.755906;stroke-miterlimit:4;stroke-dasharray:none;stroke-opacity:1"
         id="path2510-62-9-9-5-4"
         cx="-122.54707"
         cy="121.11616"
         r="22.110237" />
      <circle
         style="fill:none;stroke:#ff0000;stroke-width:0.755906;stroke-miterlimit:4;stroke-dasharray:none;stroke-opacity:1"
         id="path2510-62-9-9-5-6"
         cx="-45.001225"
         cy="95.365074"
         r="22.110237" />
      <circle
         style="fill:none;stroke:#ff0000;stroke-width:0.755906;stroke-miterlimit:4;stroke-dasharray:none;stroke-opacity:1"
         id="path2510-62-9-9-5-3"
         cx="32.544636"
         cy="69.614059"
         r="22.110237" />
      <circle
         style="fill:none;stroke:#ff0000;stroke-width:0.755906;stroke-miterlimit:4;stroke-dasharray:none;stroke-opacity:1"
         id="path2510-62-9-9-5-8"
         cx="110.09048"
         cy="43.863041"
         r="22.110237" />
      <circle
         style="fill:none;stroke:#ff0000;stroke-width:0.755906;stroke-miterlimit:4;stroke-dasharray:none;stroke-opacity:1"
         id="path2510-62-9-9-5-62"
         cx="187.63629"
         cy="18.111986"
         r="22.110237" />
      <circle
         r="22.110237"
         cy="-88.407135"
         cx="-39.382771"
         id="path2510-62-9-9-5-3-5"
         style="fill:none;stroke:#ff0000;stroke-width:0.755906;stroke-miterlimit:4;stroke-dasharray:none;stroke-opacity:1" />
      <circle
         r="22.110237"
         cy="-52.9007"
         cx="36.290283"
         id="path2510-62-9-9-5-3-51"
         style="fill:none;stroke:#ff0000;stroke-width:0.755906;stroke-miterlimit:4;stroke-dasharray:none;stroke-opacity:1" />
      <circle
         r="22.110237"
         cy="-17.394371"
         cx="111.96335"
         id="path2510-62-9-9-5-3-54"
         style="fill:none;stroke:#ff0000;stroke-width:0.755906;stroke-miterlimit:4;stroke-dasharray:none;stroke-opacity:1" />
      <circle
         r="22.110237"
         cy="-25.115433"
         cx="247.20758"
         id="path2510-62-9-9-5-3-57"
         style="fill:none;stroke:#ff0000;stroke-width:0.755906;stroke-miterlimit:4;stroke-dasharray:none;stroke-opacity:1" />
      <circle
         r="22.110237"
         cy="-68.342911"
         cx="306.77893"
         id="path2510-62-9-9-5-3-7"
         style="fill:none;stroke:#ff0000;stroke-width:0.755906;stroke-miterlimit:4;stroke-dasharray:none;stroke-opacity:1" />
      <circle
         r="22.110237"
         cy="-111.57039"
         cx="366.35016"
         id="path2510-62-9-9-5-3-3"
         style="fill:none;stroke:#ff0000;stroke-width:0.755906;stroke-miterlimit:4;stroke-dasharray:none;stroke-opacity:1" />
      <circle
         r="22.110237"
         cy="-154.79781"
         cx="425.92157"
         id="path2510-62-9-9-5-3-2"
         style="fill:none;stroke:#ff0000;stroke-width:0.755906;stroke-miterlimit:4;stroke-dasharray:none;stroke-opacity:1" />
      <circle
         r="22.110237"
         cy="-198.02531"
         cx="485.49289"
         id="path2510-62-9-9-5-3-39"
         style="fill:none;stroke:#ff0000;stroke-width:0.755906;stroke-miterlimit:4;stroke-dasharray:none;stroke-opacity:1" />
      <circle
         style="fill:none;stroke:#ff0000;stroke-width:0.755906;stroke-miterlimit:4;stroke-dasharray:none;stroke-opacity:1"
         id="path2510-62-9-9-5-3-39-4"
         cx="557.84711"
         cy="-160.07018"
         r="22.110237" />
      <circle
         style="fill:none;stroke:#ff0000;stroke-width:0.755906;stroke-miterlimit:4;stroke-dasharray:none;stroke-opacity:1"
         id="path2510-62-9-9-5-3-39-5"
         cx="630.20135"
         cy="-122.11504"
         r="22.110237" />
      <circle
         style="fill:none;stroke:#ff0000;stroke-width:0.755906;stroke-miterlimit:4;stroke-dasharray:none;stroke-opacity:1"
         id="path2510-62-9-9-5-3-39-1"
         cx="702.55566"
         cy="-84.159874"
         r="22.110237" />
      <circle
         style="fill:none;stroke:#ff0000;stroke-width:0.755906;stroke-miterlimit:4;stroke-dasharray:none;stroke-opacity:1"
         id="path2510-62-9-9-5-3-39-3"
         cx="774.90985"
         cy="-46.204811"
         r="22.110237" />
      <circle
         style="fill:none;stroke:#ff0000;stroke-width:0.755906;stroke-miterlimit:4;stroke-dasharray:none;stroke-opacity:1"
         id="path2510-62-9-9-5-3-39-2"
         cx="847.2641"
         cy="-8.2496481"
         r="22.110237" />
      <circle
         style="fill:none;stroke:#ff0000;stroke-width:0.755906;stroke-miterlimit:4;stroke-dasharray:none;stroke-opacity:1"
         id="path2510-62-9-9-5-3-39-16"
         cx="919.61835"
         cy="29.705463"
         r="22.110237" />
      <circle
         style="fill:none;stroke:#ff0000;stroke-width:0.755906;stroke-miterlimit:4;stroke-dasharray:none;stroke-opacity:1"
         id="path2510-62-9-9-5-3-39-9"
         cx="518.15839"
         cy="127.81653"
         r="22.110237" />
      <circle
         style="fill:none;stroke:#ff0000;stroke-width:0.755906;stroke-miterlimit:4;stroke-dasharray:none;stroke-opacity:1"
         id="path2510-62-9-9-5-3-39-94"
         cx="509.99197"
         cy="46.356068"
         r="22.110237" />
      <circle
         style="fill:none;stroke:#ff0000;stroke-width:0.755906;stroke-miterlimit:4;stroke-dasharray:none;stroke-opacity:1"
         id="path2510-62-9-9-5-3-39-8"
         cx="501.82568"
         cy="-35.104362"
         r="22.110237" />
      <circle
         style="fill:none;stroke:#ff0000;stroke-width:0.755906;stroke-miterlimit:4;stroke-dasharray:none;stroke-opacity:1"
         id="path2510-62-9-9-5-3-39-59"
         cx="493.6593"
         cy="-116.56484"
         r="22.110237" />
      <circle
         r="22.110237"
         cy="113.80063"
         cx="575.50983"
         id="path2510-62-9-9-5-3-39-9-9"
         style="fill:none;stroke:#ff0000;stroke-width:0.755906;stroke-miterlimit:4;stroke-dasharray:none;stroke-opacity:1" />
      <circle
         r="22.110237"
         cy="99.78476"
         cx="632.86127"
         id="path2510-62-9-9-5-3-39-9-6"
         style="fill:none;stroke:#ff0000;stroke-width:0.755906;stroke-miterlimit:4;stroke-dasharray:none;stroke-opacity:1" />
      <circle
         r="22.110237"
         cy="85.768913"
         cx="690.21277"
         id="path2510-62-9-9-5-3-39-9-2"
         style="fill:none;stroke:#ff0000;stroke-width:0.755906;stroke-miterlimit:4;stroke-dasharray:none;stroke-opacity:1" />
      <circle
         r="22.110237"
         cy="71.753105"
         cx="747.56409"
         id="path2510-62-9-9-5-3-39-9-62"
         style="fill:none;stroke:#ff0000;stroke-width:0.755906;stroke-miterlimit:4;stroke-dasharray:none;stroke-opacity:1" />
      <circle
         r="22.110237"
         cy="57.737259"
         cx="804.91547"
         id="path2510-62-9-9-5-3-39-9-65"
         style="fill:none;stroke:#ff0000;stroke-width:0.755906;stroke-miterlimit:4;stroke-dasharray:none;stroke-opacity:1" />
      <circle
         r="22.110237"
         cy="43.721344"
         cx="862.26697"
         id="path2510-62-9-9-5-3-39-9-4"
         style="fill:none;stroke:#ff0000;stroke-width:0.755906;stroke-miterlimit:4;stroke-dasharray:none;stroke-opacity:1" />
      <circle
         r="22.110237"
         cy="198.49889"
         cx="540.28229"
         id="path2510-62-9-9-5-3-39-9-0"
         style="fill:none;stroke:#ff0000;stroke-width:0.755906;stroke-miterlimit:4;stroke-dasharray:none;stroke-opacity:1" />
      <circle
         r="22.110237"
         cy="269.18134"
         cx="562.40631"
         id="path2510-62-9-9-5-3-39-9-06"
         style="fill:none;stroke:#ff0000;stroke-width:0.755906;stroke-miterlimit:4;stroke-dasharray:none;stroke-opacity:1" />
      <circle
         r="22.110237"
         cy="117.42429"
         cx="942.37433"
         id="path2510-62-9-9-5-3-39-9-04"
         style="fill:none;stroke:#ff0000;stroke-width:0.755906;stroke-miterlimit:4;stroke-dasharray:none;stroke-opacity:1" />
      <circle
         r="22.110237"
         cy="205.14317"
         cx="965.13031"
         id="path2510-62-9-9-5-3-39-9-7"
         style="fill:none;stroke:#ff0000;stroke-width:0.755906;stroke-miterlimit:4;stroke-dasharray:none;stroke-opacity:1" />
      <circle
         r="22.110237"
         cy="292.862"
         cx="987.88629"
         id="path2510-62-9-9-5-3-39-9-66"
         style="fill:none;stroke:#ff0000;stroke-width:0.755906;stroke-miterlimit:4;stroke-dasharray:none;stroke-opacity:1" />
      <circle
         r="22.110237"
         cy="184.03151"
         cx="465.12543"
         id="path2510-62-9-9-5-3-39-9-46"
         style="fill:none;stroke:#ff0000;stroke-width:0.755906;stroke-miterlimit:4;stroke-dasharray:none;stroke-opacity:1" />
    </g>
  </g>
</svg>
