<?xml version="1.0" encoding="UTF-8" standalone="no"?>
<!-- Created with Inkscape (http://www.inkscape.org/) -->

<svg
   width="150mm"
   height="150mm"
   viewBox="0 0 150 150"
   version="1.1"
   id="svg215"
   inkscape:version="1.1.2 (b8e25be833, 2022-02-05)"
   sodipodi:docname="PUZZEL_KAART.svg"
   xmlns:inkscape="http://www.inkscape.org/namespaces/inkscape"
   xmlns:sodipodi="http://sodipodi.sourceforge.net/DTD/sodipodi-0.dtd"
   xmlns="http://www.w3.org/2000/svg"
   xmlns:svg="http://www.w3.org/2000/svg">
  <sodipodi:namedview
     id="namedview217"
     pagecolor="#ffffff"
     bordercolor="#666666"
     borderopacity="1.0"
     inkscape:pageshadow="2"
     inkscape:pageopacity="0.0"
     inkscape:pagecheckerboard="0"
     inkscape:document-units="mm"
     showgrid="false"
     inkscape:zoom="2.6916944"
     inkscape:cx="361.21797"
     inkscape:cy="269.70151"
     inkscape:window-width="1920"
     inkscape:window-height="1001"
     inkscape:window-x="-9"
     inkscape:window-y="-9"
     inkscape:window-maximized="1"
     inkscape:current-layer="g59"
     width="150mm" />
  <defs
     id="defs212">
    <rect
       x="60.729198"
       y="72.98158"
       width="18.644929"
       height="53.271226"
       id="rect16760" />
    <marker
       id="DistanceX"
       orient="auto"
       refX="0"
       refY="0"
       style="overflow:visible">
      <path
         d="M 3,-3 -3,3 M 0,-5 V 5"
         style="stroke:#000000;stroke-width:0.5"
         id="path221" />
    </marker>
    <pattern
       id="Hatch"
       patternUnits="userSpaceOnUse"
       width="8"
       height="8"
       x="0"
       y="0">
      <path
         d="M8 4 l-4,4"
         stroke="#000000"
         stroke-width="0.25"
         linecap="square"
         id="path224" />
      <path
         d="M6 2 l-4,4"
         stroke="#000000"
         stroke-width="0.25"
         linecap="square"
         id="path226" />
      <path
         d="M4 0 l-4,4"
         stroke="#000000"
         stroke-width="0.25"
         linecap="square"
         id="path228" />
    </pattern>
    <symbol
       id="*Model_Space" />
    <symbol
       id="*Paper_Space" />
    <symbol
       id="*Paper_Space0" />
  </defs>
  <g
     inkscape:label="Layer 1"
     inkscape:groupmode="layer"
     id="layer1"
     transform="translate(195.07308,6.2031225)">
    <g
       inkscape:label="0"
       id="g348"
       transform="matrix(0.26458333,0,0,0.26458333,-10.947155,-95.347861)">
      <g
         id="g59"
         transform="matrix(1.1070613,0,0,1.0310391,-735.10276,405.96613)">
        <g
           id="g5380">
          <text
             xml:space="preserve"
             style="font-size:37.4401px;line-height:1.1;font-family:sans-serif;stroke-width:0.936002"
             x="166.32649"
             y="55.046074"
             id="text10618"
             transform="scale(0.96505426,1.0362112)"><tspan
               sodipodi:role="line"
               id="tspan10616"
               style="stroke-width:0.936002"></tspan></text>
          <text
             xml:space="preserve"
             transform="matrix(0.90329236,0,0,0.96989533,35.403408,-66.962669)"
             id="text16758"
             style="font-size:40px;line-height:1.1;font-family:sans-serif;white-space:pre;shape-inside:url(#rect16760)" />
        </g>
        <g
           id="g85248"
           transform="translate(-0.63932395)">
          <path
             style="fill:none;stroke:#000000;stroke-width:1.27631;stroke-linecap:butt;stroke-linejoin:miter;stroke-miterlimit:4;stroke-dasharray:none;stroke-opacity:1"
             d="M 222.91122,94.117059 C 184.8499,74.978886 184.8499,74.978886 184.8499,74.978886 v 0 0"
             id="path2303" />
          <path
             style="fill:none;stroke:#000000;stroke-width:1.32941;stroke-linecap:butt;stroke-linejoin:miter;stroke-miterlimit:4;stroke-dasharray:none;stroke-opacity:1"
             d="m 169.83683,124.63947 52.67912,-17.51046"
             id="path2305" />
          <ellipse
             style="fill:none;stroke:#ff0000;stroke-width:3.21919"
             id="path196-8"
             cx="157.55537"
             cy="132.88077"
             rx="15.460495"
             ry="16.719135" />
          <path
             style="fill:none;stroke:#000000;stroke-width:1.31371;stroke-linecap:butt;stroke-linejoin:miter;stroke-miterlimit:4;stroke-dasharray:none;stroke-opacity:1"
             d="m 252.07595,106.49341 42.71794,15.27221"
             id="path2307" />
          <path
             style="fill:none;stroke:#000000;stroke-width:1.37379;stroke-linecap:butt;stroke-linejoin:miter;stroke-miterlimit:4;stroke-dasharray:none;stroke-opacity:1"
             d="M 289.56932,59.456757 249.52663,90.703949"
             id="path2309" />
          <path
             style="fill:none;stroke:#000000;stroke-width:1.21643;stroke-linecap:butt;stroke-linejoin:miter;stroke-miterlimit:4;stroke-dasharray:none;stroke-opacity:1"
             d="m 325.16751,124.54043 58.52471,-8.26346"
             id="path2313" />
          <path
             style="fill:none;stroke:#000000;stroke-width:1.84644;stroke-linecap:butt;stroke-linejoin:miter;stroke-miterlimit:4;stroke-dasharray:none;stroke-opacity:1"
             d="m 316.24939,58.920448 73.42308,43.014412"
             id="path2315" />
          <ellipse
             style="fill:none;stroke:#ff0000;stroke-width:3.21919"
             id="path196-5"
             cx="303.18503"
             cy="50.678257"
             rx="15.460495"
             ry="16.719135" />
          <path
             style="fill:none;stroke:#000000;stroke-width:1.41878;stroke-linecap:butt;stroke-linejoin:miter;stroke-miterlimit:4;stroke-dasharray:none;stroke-opacity:1"
             d="M 330.00125,193.27658 314.65258,143.08603"
             id="path2317" />
          <path
             style="fill:none;stroke:#000000;stroke-width:0.986626;stroke-linecap:butt;stroke-linejoin:miter;stroke-miterlimit:4;stroke-dasharray:none;stroke-opacity:1"
             d="m 417.29017,175.54107 -12.97916,-43.2007"
             id="path2319" />
          <ellipse
             style="fill:none;stroke:#ff0000;stroke-width:3.21919"
             id="path196-84"
             cx="422.9552"
             cy="191.70123"
             rx="15.460495"
             ry="16.719135" />
          <path
             style="fill:none;stroke:#000000;stroke-width:1.29436;stroke-linecap:butt;stroke-linejoin:miter;stroke-miterlimit:4;stroke-dasharray:none;stroke-opacity:1"
             d="M 319.45832,301.92677 331.63154,226.9803"
             id="path2323" />
          <path
             style="fill:none;stroke:#000000;stroke-width:2.1788;stroke-linecap:butt;stroke-linejoin:miter;stroke-miterlimit:4;stroke-dasharray:none;stroke-opacity:1"
             d="m 418.68288,322.53489 2.87039,-113.23417"
             id="path2579" />
          <path
             style="fill:none;stroke:#000000;stroke-width:1.63642;stroke-linecap:butt;stroke-linejoin:miter;stroke-miterlimit:4;stroke-dasharray:none;stroke-opacity:1"
             d="m 344.2565,224.76888 60.18254,100.66278"
             id="path2581" />
          <path
             style="fill:none;stroke:#000000;stroke-width:0.91354;stroke-linecap:butt;stroke-linejoin:miter;stroke-miterlimit:4;stroke-dasharray:none;stroke-opacity:1"
             d="M 397.34777,339.70518 377.1739,339.16503 329.37059,324.47242"
             id="path2778" />
          <path
             style="fill:none;stroke:#000000;stroke-width:1.18398;stroke-linecap:butt;stroke-linejoin:miter;stroke-miterlimit:4;stroke-dasharray:none;stroke-opacity:1"
             d="M 306.98042,108.99565 302.99083,68.301829"
             id="path3235" />
          <path
             style="fill:none;stroke:#000000;stroke-width:1.49007;stroke-linecap:butt;stroke-linejoin:miter;stroke-miterlimit:4;stroke-dasharray:none;stroke-opacity:1"
             d="m 252.00939,193.05416 47.69909,-54.22635"
             id="path3237" />
          <path
             style="fill:none;stroke:#000000;stroke-width:1.49919;stroke-linecap:butt;stroke-linejoin:miter;stroke-miterlimit:4;stroke-dasharray:none;stroke-opacity:1"
             d="M 224.92268,198.1872 166.82731,146.65914"
             id="path3239" />
          <path
             style="fill:none;stroke:#000000;stroke-width:2.16688;stroke-linecap:butt;stroke-linejoin:miter;stroke-miterlimit:4;stroke-dasharray:none;stroke-opacity:1"
             d="m 247.13504,221.6946 58.38785,81.35636"
             id="path3241" />
          <path
             style="fill:none;stroke:#000000;stroke-width:1.81887;stroke-linecap:butt;stroke-linejoin:miter;stroke-miterlimit:4;stroke-dasharray:none;stroke-opacity:1"
             d="m 256.38222,209.48703 62.12336,-0.76491"
             id="path3243" />
          <ellipse
             style="fill:none;stroke:#ff0000;stroke-width:3.21919"
             id="path196-81"
             cx="313.90311"
             cy="318.4758"
             rx="15.460495"
             ry="16.719135" />
          <ellipse
             style="fill:none;stroke:#ff0000;stroke-width:3.21919"
             id="path196-6"
             cx="240.06752"
             cy="205.58432"
             rx="15.460495"
             ry="16.719135" />
          <path
             style="fill:none;stroke:#000000;stroke-width:1.72392;stroke-linecap:butt;stroke-linejoin:miter;stroke-miterlimit:4;stroke-dasharray:none;stroke-opacity:1"
             d="m 349.30828,210.39545 57.21805,-14.45476"
             id="path3245" />
          <path
             style="fill:none;stroke:#000000;stroke-width:0.986227;stroke-linecap:butt;stroke-linejoin:miter;stroke-miterlimit:4;stroke-dasharray:none;stroke-opacity:1"
             d="m 151.7227,115.58433 0.27625,-14.57931 7.81839,-12.942475 v 0"
             id="path5222" />
          <ellipse
             style="fill:none;stroke:#ff0000;stroke-width:3.21919"
             id="path196"
             cx="308.84396"
             cy="125.50289"
             rx="15.460495"
             ry="16.719135" />
          <ellipse
             style="fill:none;stroke:#ff0000;stroke-width:3.21919"
             id="path196-9"
             cx="169.46434"
             cy="73.694962"
             rx="15.460495"
             ry="16.719135" />
          <ellipse
             style="fill:none;stroke:#ff0000;stroke-width:3.21919"
             id="path196-2"
             cx="236.83507"
             cy="99.999771"
             rx="15.460495"
             ry="16.719135" />
          <ellipse
             style="fill:none;stroke:#ff0000;stroke-width:3.21919"
             id="path196-3"
             cx="414.27866"
             cy="338.93506"
             rx="15.460495"
             ry="16.719135" />
          <ellipse
             style="fill:none;stroke:#ff0000;stroke-width:3.21919"
             id="path196-54"
             cx="334.70663"
             cy="210.75021"
             rx="15.460495"
             ry="16.719135" />
          <ellipse
             style="fill:none;stroke:#ff0000;stroke-width:3.21919"
             id="path196-1"
             cx="399.66797"
             cy="114.64864"
             rx="15.460495"
             ry="16.719135" />
          <text
             xml:space="preserve"
             style="font-style:normal;font-variant:normal;font-weight:normal;font-stretch:normal;font-size:19.968px;line-height:1.1;font-family:'Bernard MT Condensed';-inkscape-font-specification:'Bernard MT Condensed, ';stroke-width:0.936002"
             x="171.93765"
             y="78.23465"
             id="text20660"
             transform="scale(0.96505425,1.0362112)"><tspan
               sodipodi:role="line"
               id="tspan20658"
               style="font-style:normal;font-variant:normal;font-weight:normal;font-stretch:normal;font-size:19.968px;font-family:'Bernard MT Condensed';-inkscape-font-specification:'Bernard MT Condensed, ';stroke-width:0.936002"
               x="171.93765"
               y="78.23465">1</tspan></text>
          <text
             xml:space="preserve"
             style="font-style:normal;font-variant:normal;font-weight:normal;font-stretch:normal;font-size:19.968px;line-height:1.1;font-family:'Bernard MT Condensed';-inkscape-font-specification:'Bernard MT Condensed, ';stroke-width:0.936002"
             x="424.13654"
             y="335.2655"
             id="text20660-9"
             transform="scale(0.96505425,1.0362112)"><tspan
               sodipodi:role="line"
               id="tspan20658-0"
               style="font-style:normal;font-variant:normal;font-weight:normal;font-stretch:normal;font-size:19.968px;font-family:'Bernard MT Condensed';-inkscape-font-specification:'Bernard MT Condensed, ';stroke-width:0.936002"
               x="424.13654"
               y="335.2655">2</tspan></text>
          <text
             xml:space="preserve"
             style="font-style:normal;font-variant:normal;font-weight:normal;font-stretch:normal;font-size:19.968px;line-height:1.1;font-family:'Bernard MT Condensed';-inkscape-font-specification:'Bernard MT Condensed, ';stroke-width:0.936002"
             x="243.90324"
             y="207.64796"
             id="text20660-1"
             transform="scale(0.96505425,1.0362112)"><tspan
               sodipodi:role="line"
               id="tspan20658-5"
               style="font-style:normal;font-variant:normal;font-weight:normal;font-stretch:normal;font-size:19.968px;font-family:'Bernard MT Condensed';-inkscape-font-specification:'Bernard MT Condensed, ';stroke-width:0.936002"
               x="243.90324"
               y="207.64796">3</tspan></text>
          <text
             xml:space="preserve"
             style="font-style:normal;font-variant:normal;font-weight:normal;font-stretch:normal;font-size:19.968px;line-height:1.1;font-family:'Bernard MT Condensed';-inkscape-font-specification:'Bernard MT Condensed, ';stroke-width:0.936002"
             x="309.00891"
             y="55.289684"
             id="text20660-3"
             transform="scale(0.96505425,1.0362112)"><tspan
               sodipodi:role="line"
               id="tspan20658-3"
               style="font-style:normal;font-variant:normal;font-weight:normal;font-stretch:normal;font-size:19.968px;font-family:'Bernard MT Condensed';-inkscape-font-specification:'Bernard MT Condensed, ';stroke-width:0.936002"
               x="309.00891"
               y="55.289684">4</tspan></text>
          <text
             xml:space="preserve"
             style="font-style:normal;font-variant:normal;font-weight:normal;font-stretch:normal;font-size:19.968px;line-height:1.1;font-family:'Bernard MT Condensed';-inkscape-font-specification:'Bernard MT Condensed, ';stroke-width:0.936002"
             x="157.97423"
             y="137.76724"
             id="text20660-33"
             transform="scale(0.96505425,1.0362112)"><tspan
               sodipodi:role="line"
               id="tspan20658-37"
               style="font-style:normal;font-variant:normal;font-weight:normal;font-stretch:normal;font-size:19.968px;font-family:'Bernard MT Condensed';-inkscape-font-specification:'Bernard MT Condensed, ';stroke-width:0.936002"
               x="157.97423"
               y="137.76724">5</tspan></text>
          <text
             xml:space="preserve"
             style="font-style:normal;font-variant:normal;font-weight:normal;font-stretch:normal;font-size:19.968px;line-height:1.1;font-family:'Bernard MT Condensed';-inkscape-font-specification:'Bernard MT Condensed, ';stroke-width:0.936002"
             x="408.69943"
             y="118.30475"
             id="text20660-6"
             transform="scale(0.96505425,1.0362112)"><tspan
               sodipodi:role="line"
               id="tspan20658-2"
               style="font-style:normal;font-variant:normal;font-weight:normal;font-stretch:normal;font-size:19.968px;font-family:'Bernard MT Condensed';-inkscape-font-specification:'Bernard MT Condensed, ';stroke-width:0.936002"
               x="408.69943"
               y="118.30475">6</tspan></text>
          <text
             xml:space="preserve"
             style="font-style:normal;font-variant:normal;font-weight:normal;font-stretch:normal;font-size:19.968px;line-height:1.1;font-family:'Bernard MT Condensed';-inkscape-font-specification:'Bernard MT Condensed, ';stroke-width:0.936002"
             x="312.79294"
             y="129.6813"
             id="text20660-0"
             transform="scale(0.96505425,1.0362112)"><tspan
               sodipodi:role="line"
               id="tspan20658-7"
               style="font-style:normal;font-variant:normal;font-weight:normal;font-stretch:normal;font-size:19.968px;font-family:'Bernard MT Condensed';-inkscape-font-specification:'Bernard MT Condensed, ';stroke-width:0.936002"
               x="312.79294"
               y="129.6813">7</tspan><tspan
               sodipodi:role="line"
               style="font-style:normal;font-variant:normal;font-weight:normal;font-stretch:normal;font-size:19.968px;font-family:'Bernard MT Condensed';-inkscape-font-specification:'Bernard MT Condensed, ';stroke-width:0.936002"
               x="312.79294"
               y="151.6461"
               id="tspan70682" /></text>
          <text
             xml:space="preserve"
             style="font-style:normal;font-variant:normal;font-weight:normal;font-stretch:normal;font-size:19.968px;line-height:1.1;font-family:'Bernard MT Condensed';-inkscape-font-specification:'Bernard MT Condensed, ';stroke-width:0.936002"
             x="320.207"
             y="315.33032"
             id="text20660-8"
             transform="scale(0.96505425,1.0362112)"><tspan
               sodipodi:role="line"
               style="font-style:normal;font-variant:normal;font-weight:normal;font-stretch:normal;font-size:19.968px;font-family:'Bernard MT Condensed';-inkscape-font-specification:'Bernard MT Condensed, ';stroke-width:0.936002"
               x="320.207"
               y="315.33032"
               id="tspan75165">8</tspan></text>
          <text
             xml:space="preserve"
             style="font-style:normal;font-variant:normal;font-weight:normal;font-stretch:normal;font-size:19.968px;line-height:1.1;font-family:'Bernard MT Condensed';-inkscape-font-specification:'Bernard MT Condensed, ';stroke-width:0.936002"
             x="433.85327"
             y="192.91318"
             id="text20660-87"
             transform="scale(0.96505425,1.0362112)"><tspan
               sodipodi:role="line"
               id="tspan20658-4"
               style="font-style:normal;font-variant:normal;font-weight:normal;font-stretch:normal;font-size:19.968px;font-family:'Bernard MT Condensed';-inkscape-font-specification:'Bernard MT Condensed, ';stroke-width:0.936002"
               x="433.85327"
               y="192.91318">9</tspan></text>
          <text
             xml:space="preserve"
             style="font-style:normal;font-variant:normal;font-weight:normal;font-stretch:normal;font-size:19.968px;line-height:1.1;font-family:'Bernard MT Condensed';-inkscape-font-specification:'Bernard MT Condensed, ';stroke-width:0.936002"
             x="237.17542"
             y="104.41859"
             id="text20660-7"
             transform="scale(0.96505425,1.0362112)"><tspan
               sodipodi:role="line"
               id="tspan20658-1"
               style="font-style:normal;font-variant:normal;font-weight:normal;font-stretch:normal;font-size:19.968px;font-family:'Bernard MT Condensed';-inkscape-font-specification:'Bernard MT Condensed, ';stroke-width:0.936002"
               x="237.17542"
               y="104.41859">10</tspan></text>
          <text
             xml:space="preserve"
             style="font-style:normal;font-variant:normal;font-weight:normal;font-stretch:normal;font-size:19.968px;line-height:1.1;font-family:'Bernard MT Condensed';-inkscape-font-specification:'Bernard MT Condensed, ';stroke-width:0.936002"
             x="339.03757"
             y="211.93333"
             id="text20660-75"
             transform="scale(0.96505425,1.0362112)"><tspan
               sodipodi:role="line"
               id="tspan20658-46"
               style="font-style:normal;font-variant:normal;font-weight:normal;font-stretch:normal;font-size:19.968px;font-family:'Bernard MT Condensed';-inkscape-font-specification:'Bernard MT Condensed, ';stroke-width:0.936002"
               x="339.03757"
               y="211.93333">11</tspan></text>
          <g
             id="g2038"
             transform="matrix(1.2005175,0,0,1.3251897,79.708847,5.6061584)">
            <g
               id="g611">
              <path
                 style="fill:#8c8c8c;fill-opacity:1;stroke-width:0.352778"
                 d="m 267.95427,289.38778 c -0.96127,-1.14685 -1.08727,-1.52758 -0.94663,-2.86063 0.22205,-2.10478 -0.62582,-5.89813 -1.6715,-7.47826 -1.21753,-1.83981 -3.25987,-2.7125 -7.0495,-3.01222 -2.74409,-0.21703 -3.27833,-0.37152 -4.23334,-1.22423 -1.0731,-0.95816 -1.09511,-1.0436 -1.21322,-4.70929 -0.11312,-3.51058 -0.17386,-3.77555 -1.01771,-4.43933 -1.07517,-0.84572 -2.19332,-0.87839 -5.88519,-0.17193 -1.70533,0.32632 -3.46705,0.44401 -4.53189,0.30276 -1.51784,-0.20135 -1.87813,-0.41762 -2.79956,-1.68044 -1.22813,-1.68316 -2.83141,-4.77548 -3.42239,-6.60095 -0.56572,-1.74739 -1.65959,-2.6691 -4.30765,-3.62967 -1.24134,-0.45029 -3.0595,-1.2254 -4.04036,-1.72248 -2.51893,-1.27654 -3.81773,-1.42459 -7.03607,-0.80203 -3.99197,0.77221 -6.20679,0.71986 -7.16115,-0.16926 -1.14436,-1.06614 -1.32042,-2.32678 -0.61482,-4.40258 0.58812,-1.73023 0.58876,-1.88619 0.0123,-3.00097 -0.76055,-1.47075 -0.74759,-3.38144 0.039,-5.74726 0.72337,-2.1757 0.79455,-5.36594 0.14718,-6.59651 -0.25473,-0.48423 -1.05172,-1.59479 -1.77108,-2.46792 -2.59193,-3.14596 -2.98991,-4.67122 -2.2513,-8.62802 0.2913,-1.56049 0.74639,-4.38689 1.01132,-6.28088 0.40682,-2.90833 0.72764,-3.89541 2.06388,-6.35 0.8702,-1.59851 1.91714,-3.90303 2.32652,-5.12117 0.85093,-2.532 0.74469,-2.94185 -1.32345,-5.10534 -0.94733,-0.99101 -1.54856,-1.32292 -2.39637,-1.32292 -1.21915,0 -1.61115,0.37359 -4.18331,3.98689 -0.79817,1.12125 -2.01288,2.3014 -2.82222,2.74189 -5.73657,3.12223 -5.93369,3.44049 -5.61571,9.06698 0.21196,3.75057 0.16547,4.2865 -0.48179,5.55474 -1.0286,2.01542 -1.56409,2.40494 -7.74677,5.63507 -3.06257,1.60004 -6.61318,3.4818 -7.89025,4.18168 -4.76129,2.60937 -8.226,2.86614 -14.3382,1.06261 -2.13734,-0.63067 -4.4885,-1.00258 -7.59631,-1.20162 -6.15337,-0.39407 -9.25183,-1.3202 -11.34373,-3.39062 -1.4962,-1.48085 -2.30678,-3.52553 -2.31568,-5.84132 -0.007,-1.76568 0.13081,-2.17401 1.10744,-3.28632 0.61335,-0.69857 2.06309,-1.99952 3.22164,-2.89101 l 2.10646,-1.62088 -0.19086,-2.52366 c -0.10497,-1.38801 -0.422,-3.07683 -0.70449,-3.75294 -0.45675,-1.09315 -0.76308,-1.2986 -2.7662,-1.85523 -1.23891,-0.34427 -2.53038,-0.87713 -2.86993,-1.18412 -0.8162,-0.73793 -0.78161,-2.26158 0.0882,-3.88445 0.51118,-0.95375 0.70556,-1.9904 0.70556,-3.76294 0,-1.99419 0.20363,-2.88832 1.10137,-4.836 1.47224,-3.19405 1.26742,-4.89967 -0.87853,-7.31588 -0.8213,-0.92475 -2.02416,-2.4206 -2.67302,-3.32412 -2.02025,-2.81315 -6.61642,-6.26536 -9.3056,-6.98948 -1.08717,-0.29274 -1.98079,-0.2203 -4.45881,0.36147 -4.08125,0.95817 -4.52268,0.93211 -8.65262,-0.51068 -2.22811,-0.77839 -4.17912,-1.23117 -5.30508,-1.23117 -1.65798,0 -1.97483,0.1548 -4.58974,2.24228 -3.3996,2.71392 -4.67792,3.40216 -6.31907,3.40216 -1.47879,0 -2.43206,-0.8266 -3.39239,-2.94164 -0.73594,-1.62086 -0.8756,-5.49031 -0.35856,-9.93474 0.52208,-4.48773 -0.93363,-9.59026 -3.204306,-11.2317 -0.553748,-0.4003 -3.310121,-1.19891 -6.702778,-1.94201 -4.780136,-1.04701 -6.483795,-1.26452 -9.995596,-1.27616 -2.352266,-0.008 -4.546844,-0.18446 -4.938889,-0.39758 -0.388056,-0.21096 -1.606116,-0.5768 -2.706804,-0.81296 -2.380467,-0.51076 -3.99221,-2.04394 -6.087598,-5.79084 -1.089074,-1.94745 -1.36895,-2.86923 -1.60044,-5.27113 -0.193625,-2.00906 -0.644609,-3.78537 -1.455586,-5.73318 -1.030545,-2.47518 -1.176295,-3.21265 -1.185241,-5.99722 -0.0056,-1.74625 0.125045,-3.68041 0.290346,-4.29814 0.254445,-0.95085 0.167224,-1.25647 -0.568547,-1.99224 -1.751348,-1.75135 -5.149095,-6.13652 -7.084734,-9.14365 -1.423977,-2.21222 -2.189583,-3.0868 -2.702179,-3.0868 -1.600828,0 -10.579045,2.57283 -12.882553,3.69167 -3.093495,1.50255 -4.179176,2.65241 -4.902967,5.19282 -0.746984,2.6218 -1.783772,3.46273 -4.269256,3.46273 -1.82286,0 -2.857958,-0.50229 -4.409723,-2.13985 -0.291042,-0.30713 -1.264014,-1.13682 -2.162162,-1.84375 -1.17,-0.92091 -2.020181,-2.05286 -2.998611,-3.99243 -1.139418,-2.25871 -1.930131,-3.22109 -4.77374,-5.81014 -2.558095,-2.32909 -3.789916,-3.20147 -4.93889,-3.49772 C 5.6670512,98.545805 4.8965729,97.686943 5.2298258,92.518117 5.4025088,89.839768 5.3418892,89.345407 4.7516038,88.618145 3.7381465,87.369513 3.9078864,85.547765 5.3103541,82.621304 7.2354781,78.604245 7.0769341,77.45741 3.8590097,72.122966 1.747804,68.623156 1.2743109,66.762564 1.2605026,61.912116 1.25405,59.64553 1.3410349,59.338169 2.2235483,58.50918 c 0.5335764,-0.501216 2.0864479,-1.457696 3.4508255,-2.125511 2.2469505,-1.099806 7.6438742,-4.23309 21.3318152,-12.38457 7.01554,-4.177916 12.200373,-7.692597 15.033185,-10.190658 2.663494,-2.348749 6.601546,-4.772234 9.932992,-6.112787 1.11173,-0.447353 4.79945,-1.524736 8.194937,-2.394186 6.463521,-1.655053 9.18499,-2.568224 14.036609,-4.70989 3.526635,-1.556775 3.662186,-1.484644 4.436417,2.360788 0.402047,1.996868 0.446783,3.078477 0.182386,4.409722 -0.419276,2.111087 -0.07529,6.683063 0.60149,7.994546 0.702906,1.362109 2.113908,2.349481 4.241335,2.967939 2.350985,0.68345 5.361471,0.731957 5.958262,0.096 0.24524,-0.261338 0.787664,-1.524152 1.205381,-2.806254 0.831233,-2.551304 1.643518,-3.520975 3.652729,-4.360477 3.739543,-1.562481 8.602228,-0.808086 14.985478,2.32484 4.35999,2.1399 6.41619,3.95977 7.32536,6.483401 0.34951,0.970139 0.89961,2.048577 1.22245,2.396532 0.87676,0.944947 4.03938,1.651508 7.41338,1.656225 l 2.99599,0.0042 5.64707,-2.864633 c 3.10588,-1.575548 6.18394,-3.28211 6.84012,-3.792361 0.65619,-0.510251 2.87864,-2.197728 4.93879,-3.74995 3.75579,-2.829813 4.06954,-3.182834 8.61074,-9.688676 2.17062,-3.109694 3.82347,-4.380589 5.37547,-4.133284 0.58744,0.09361 2.64622,0.844453 4.57508,1.668551 2.57611,1.100634 4.0126,1.507878 5.41174,1.534218 2.7985,0.05268 2.97669,-0.440014 1.48029,-4.092935 -1.94542,-4.749065 -1.83744,-7.89503 0.34268,-9.9837136 0.62966,-0.6032528 2.34024,-1.451858 4.31337,-2.1398243 1.79844,-0.6270586 4.21255,-1.4852541 5.36469,-1.9071011 3.43936,-1.2593098 4.41678,-0.2912171 3.19687,3.166366 -0.29104,0.8248999 -0.52917,1.956109 -0.52917,2.513798 v 1.01398 h 3.15764 c 1.7367,0 3.97331,0.174931 4.97025,0.388735 1.73202,0.371452 1.85609,0.347079 2.79054,-0.548183 0.53787,-0.515306 1.59175,-2.0567005 2.34198,-3.4253216 1.65866,-3.025861 4.51173,-5.7583103 6.60256,-6.3234261 3.08055,-0.83262172 7.43157,0.4282963 8.33729,2.4161349 0.3038,0.6667839 0.29984,1.7405996 -0.0161,4.3471296 -0.49393,4.0754032 -0.19241,4.8707692 2.2704,5.9889662 1.79529,0.815118 3.36862,0.858772 5.0862,0.141121 1.96697,-0.821855 2.42077,-1.389869 3.83364,-4.7985145 1.54384,-3.7245889 3.2822,-5.594975 5.20007,-5.594975 1.55072,0 3.66422,1.5457667 5.12137,3.7456536 l 1.13469,1.7130712 -0.10346,5.5306567 -0.10346,5.530657 1.44557,2.05873 c 0.79507,1.132302 1.64122,2.655262 1.88034,3.384356 0.53484,1.630774 1.06096,1.925006 4.25124,2.377468 4.00778,0.568405 4.81473,1.206727 5.64097,4.462158 0.31891,1.256533 0.57793,1.545197 1.83939,2.049934 0.80752,0.323103 2.75055,0.674609 4.31785,0.781125 2.589,0.175951 3.42473,0.04492 9.13724,-1.432573 3.45819,-0.89443 6.71256,-1.616539 7.23195,-1.604685 0.51939,0.01185 1.81066,0.293251 2.8695,0.625328 2.3394,0.733693 2.98562,1.673534 3.5395,5.147745 0.21423,1.343784 0.64553,2.876631 0.95843,3.406334 0.68691,1.162833 2.59473,2.264255 4.51302,2.605451 0.81602,0.14514 2.05825,0.780549 2.94562,1.506696 1.51731,1.241633 1.55419,1.251169 3.29011,0.85047 2.72576,-0.629183 4.16697,-0.490143 6.53588,0.630544 2.97418,1.407026 4.25879,2.410975 5.21995,4.07949 1.22005,2.117941 1.32881,3.265869 0.70673,7.459709 -0.97012,6.540217 -1.53814,8.314284 -3.53,11.025099 -0.66348,0.902952 -0.8827,1.64278 -0.88853,2.998611 -0.005,1.068373 -0.30714,2.445123 -0.74439,3.387414 -0.40514,0.873125 -0.87719,2.9123 -1.04899,4.531498 -0.44795,4.221807 -1.99653,7.046563 -5.69274,10.384048 -3.15583,2.849552 -4.50058,4.84711 -4.50058,6.685358 0,1.064542 0.35066,1.619984 2.31892,3.673172 2.92819,3.05455 3.40205,3.93284 3.10937,5.76315 l -0.2268,1.41833 h 1.23496 c 0.67923,0 1.9969,-0.33704 2.92814,-0.74897 1.41276,-0.62492 2.07749,-0.71018 4.0136,-0.51477 1.27623,0.12881 4.86042,0.36983 7.96486,0.53561 4.59735,0.24549 6.10256,0.46432 8.11389,1.1796 4.37033,1.5542 10.75311,4.39863 11.99377,5.34493 0.66316,0.50581 2.15575,2.30574 3.31686,3.99983 3.72397,5.43334 5.2468,6.60893 11.03282,8.51704 1.295,0.42707 2.54312,1.0037 2.7736,1.28141 0.63929,0.7703 -1.47734,3.80336 -3.86158,5.53353 -3.16226,2.29475 -3.91241,3.11233 -3.91241,4.26411 0,1.92327 1.48508,6.60577 2.21975,6.99896 0.3778,0.20219 2.75533,0.58456 5.2834,0.84971 3.84808,0.4036 4.81771,0.62848 5.95501,1.38111 1.30901,0.86627 1.35851,0.97143 1.35851,2.88646 v 1.98745 l -0.79375,-1.16626 c -1.37349,-2.01808 -2.39662,-2.52899 -5.79069,-2.89166 -1.71432,-0.18319 -3.78001,-0.40843 -4.59041,-0.50054 -2.48679,-0.28265 -3.69832,-1.37603 -4.6484,-4.19507 -1.13479,-3.36714 -1.3581,-6.07568 -0.61879,-7.50535 0.31755,-0.61409 1.48786,-1.78562 2.60068,-2.6034 2.70884,-1.99067 3.96358,-3.15586 3.96358,-3.68069 0,-0.23892 -1.07156,-0.78286 -2.38125,-1.20875 -4.51349,-1.46773 -6.70248,-3.28075 -10.20881,-8.4554 -0.98604,-1.45521 -2.1924,-3.01612 -2.68079,-3.4687 -0.4884,-0.45257 -2.91795,-1.69133 -5.399,-2.75278 -7.44791,-3.18641 -8.36554,-3.44682 -12.31487,-3.49486 -1.94028,-0.0236 -5.27432,-0.25165 -7.40898,-0.50679 -3.75116,-0.44833 -3.93094,-0.43849 -5.36581,0.29352 -2.04421,1.04288 -5.10236,1.0483 -6.13978,0.0109 -0.62055,-0.62055 -0.71778,-1.04539 -0.57628,-2.51798 l 0.17021,-1.77148 -2.37105,-2.5091 c -2.83832,-3.00354 -3.17915,-3.5985 -3.17915,-5.549507 0,-2.375789 1.23445,-4.382322 4.84012,-7.867346 3.89266,-3.762414 4.93347,-5.593373 5.23005,-9.200561 0.11168,-1.358194 0.54091,-3.263194 0.95386,-4.233333 0.41295,-0.970139 0.85672,-2.840538 0.98616,-4.156445 0.1936,-1.968313 0.4682,-2.73067 1.54861,-4.299381 1.49778,-2.174705 2.07367,-4.095732 2.81853,-9.401926 0.79105,-5.635268 0.21764,-6.845084 -4.33212,-9.140257 -1.92713,-0.972163 -2.47255,-1.098599 -3.88056,-0.899583 -5.06727,0.716241 -4.77995,0.744926 -6.30076,-0.629031 -0.93441,-0.844183 -1.98642,-1.392484 -3.1509,-1.642219 -3.50287,-0.75123 -5.53943,-2.801433 -6.17208,-6.213426 -0.74312,-4.007819 -1.01179,-4.467713 -2.92571,-5.00828 -1.96766,-0.555747 -2.37781,-0.492561 -9.89992,1.525143 -4.53061,1.215274 -5.20136,1.307821 -8.11389,1.119509 -5.62036,-0.36339 -7.55469,-1.403102 -8.28662,-4.454104 -0.23013,-0.959321 -0.62119,-1.912497 -0.86901,-2.118168 -0.24782,-0.205671 -1.56199,-0.513502 -2.92039,-0.684068 -1.3584,-0.170567 -3.05368,-0.587185 -3.7673,-0.925818 -1.24898,-0.592676 -2.32474,-2.037301 -2.32474,-3.121849 0,-0.285815 -0.5394,-1.226311 -1.19866,-2.089992 -2.18221,-2.85885 -2.16062,-2.764737 -2.0589,-8.974173 l 0.0938,-5.7279593 -1.70468,-1.7685688 c -0.93757,-0.9727127 -1.97956,-1.7685687 -2.31554,-1.7685687 -0.99127,0 -2.23707,1.6531614 -3.25679,4.3217608 -1.67673,4.387923 -4.43682,6.591423 -8.27542,6.606602 -2.40143,0.0095 -5.24512,-1.2903 -6.41686,-2.933024 -0.8722,-1.222781 -1.05843,-3.945576 -0.51761,-7.5680272 l 0.27854,-1.8657436 -1.65438,-0.7318103 c -3.7538,-1.6604871 -6.56682,-0.175369 -9.84351,5.196837 -2.60027,4.2632111 -3.85061,5.2588461 -6.16892,4.9122801 -0.87313,-0.130524 -3.35741,-0.34298 -5.52063,-0.472123 -4.68759,-0.279848 -5.41548,-0.691018 -5.41548,-3.059063 0,-0.8140998 0.1771,-1.9882243 0.39356,-2.6091653 0.21646,-0.6209415 0.31122,-1.2113302 0.21058,-1.3119753 -0.10065,-0.100645 -0.80056,0.1320652 -1.55535,0.5171334 -0.7548,0.3850686 -2.57755,1.0503066 -4.05055,1.4783061 -3.64601,1.0593927 -4.57019,1.8463341 -4.77384,4.0649401 -0.1291,1.406452 0.0842,2.371383 1.10362,4.993245 1.53176,3.93946 1.60566,5.302337 0.35128,6.478194 -0.79905,0.74903 -1.22621,0.851212 -3.43958,0.822775 -2.51692,-0.03234 -2.94197,-0.160295 -9.32972,-2.808617 l -1.51082,-0.626379 -1.23311,1.195177 c -0.67821,0.657348 -1.89718,2.231277 -2.70882,3.497621 -2.78285,4.34187 -4.41435,6.193389 -7.31864,8.305563 -1.59629,1.160924 -3.84011,2.85808 -4.98627,3.771464 -1.14615,0.913381 -4.82025,3.030859 -8.16466,4.705509 l -6.08074,3.044814 -4.23334,-0.1365 c -3.66339,-0.118128 -4.50766,-0.262749 -6.27093,-1.074198 -1.80126,-0.828932 -2.13843,-1.154292 -2.90697,-2.805116 -0.47815,-1.027084 -0.87092,-2.047391 -0.87282,-2.267348 -0.0118,-1.361056 -7.44539,-5.675003 -11.8215,-6.860327 -2.44722,-0.66286 -5.338722,-0.605271 -7.303306,0.145456 -1.525923,0.583102 -1.71764,0.794634 -2.392374,2.639625 -1.843313,5.040361 -1.929278,5.122043 -5.390127,5.121602 -5.227088,-6.63e-4 -9.532229,-2.356456 -10.529356,-5.761711 -0.294156,-1.004572 -0.46954,-3.616711 -0.477622,-7.113692 -0.007,-3.039405 -0.123613,-5.637329 -0.259087,-5.773165 -0.135474,-0.135835 -1.484849,0.269188 -2.998611,0.90005 -4.323511,1.801829 -6.180572,2.395887 -13.19631,4.221395 -8.558768,2.227008 -12.986521,4.404374 -17.621509,8.665454 -2.644924,2.431556 -7.770296,5.778821 -18.428877,12.03549 -4.502389,2.642937 -9.552513,5.642522 -11.222496,6.665739 -1.669983,1.023218 -4.4877961,2.589364 -6.2618063,3.480326 l -3.2254726,1.619927 0.00204,2.024934 c 0.00384,3.800831 0.5762945,5.980578 2.3664893,9.010851 3.4220399,5.792508 3.7208456,7.949995 1.6884122,12.190973 -1.4393049,3.003324 -1.4732365,3.309782 -0.5154034,4.654934 0.6448863,0.905658 0.6948936,1.333744 0.4832727,4.137036 -0.1561214,2.06811 -0.1024202,3.376528 0.1585998,3.86425 0.3934679,0.735199 1.5655305,1.244963 5.4522913,2.371361 1.741178,0.5046 2.580352,1.083497 5.55554,3.832452 2.821665,2.60711 3.774634,3.75447 4.890568,5.88816 1.075524,2.05643 1.989316,3.18257 4.079177,5.02709 2.331618,2.05789 2.875857,2.37699 4.053995,2.37699 h 1.360827 l 0.777425,-2.33616 c 0.950367,-2.85586 2.530402,-4.54875 5.674754,-6.08009 2.508307,-1.22158 12.293245,-3.93097 14.196671,-3.93097 1.485643,0 2.818469,1.20991 4.379151,3.97528 1.154628,2.04589 4.689864,6.67839 6.738444,8.82991 1.180864,1.24021 1.26703,1.47647 1.157905,3.175 -0.372371,5.79604 -0.219195,7.38477 0.993225,10.30175 0.785971,1.89098 1.252284,3.70092 1.413203,5.48518 0.184979,2.05105 0.515712,3.17993 1.439309,4.91278 1.837962,3.44837 2.91265,4.3926 5.620774,4.93846 1.26118,0.25422 2.44246,0.59705 2.625069,0.76186 0.182608,0.1648 1.611358,0.20394 3.175,0.087 2.47227,-0.18493 3.754201,-0.0233 9.830961,1.23945 3.843387,0.79866 7.415263,1.67444 7.937501,1.94616 3.353293,1.74475 5.406143,7.77964 4.662833,13.70763 -0.57905,4.61802 -0.46837,7.48679 0.35081,9.09251 1.01799,1.99543 1.81954,1.85631 5.34191,-0.92713 1.61766,-1.27831 3.41333,-2.57078 3.99038,-2.87216 1.77275,-0.92587 4.22667,-0.70675 8.63145,0.77076 l 4.03619,1.35386 3.6046,-0.80009 c 4.50015,-0.99886 6.08544,-0.71242 9.79733,1.77024 2.37697,1.58982 3.84975,3.02519 8.19355,7.98545 2.29834,2.62451 2.50946,3.05056 2.80468,5.65992 0.22242,1.96598 0.14527,2.3642 -0.85641,4.42032 -0.92192,1.89241 -1.10085,2.67317 -1.10085,4.80351 0,1.88065 -0.19138,2.91897 -0.73413,3.98285 -0.40378,0.79146 -0.60222,1.56131 -0.44098,1.71077 0.16125,0.14947 1.21223,0.53371 2.33553,0.85387 2.38029,0.67844 3.22648,1.40868 3.78393,3.26545 0.65812,2.19208 0.84911,6.30802 0.34876,7.51597 -0.26246,0.63362 -1.4251,1.78409 -2.85126,2.82139 -1.32445,0.96332 -2.59031,2.09197 -2.81302,2.50812 -0.61858,1.15582 -0.48529,2.87293 0.35013,4.51048 1.38864,2.72197 4.24951,3.79807 11.38503,4.28245 3.33519,0.2264 5.55244,0.58473 7.68602,1.24216 2.09145,0.64444 3.8524,0.9341 5.82083,0.95749 3.22449,0.0383 4.92251,-0.52575 8.86656,-2.9453 1.33228,-0.81732 4.34487,-2.4223 6.69464,-3.56664 2.34977,-1.14433 4.73102,-2.56162 5.29167,-3.14953 l 1.01935,-1.06893 -0.0881,-4.75209 c -0.0975,-5.25828 0.0669,-5.86941 2.08648,-7.75628 0.64714,-0.60462 2.18785,-1.62908 3.42379,-2.27656 1.89487,-0.99268 2.54498,-1.60226 4.14686,-3.88833 2.03451,-2.90345 2.85424,-3.61523 4.60687,-4.00017 2.19572,-0.48226 5.96523,2.4702 6.82727,5.34745 0.35664,1.19036 0.29111,1.70713 -0.52842,4.16707 -0.51455,1.5445 -1.4543,3.68558 -2.08834,4.75795 -1.39091,2.35252 -1.98038,3.96069 -1.98777,5.42302 -0.003,0.60163 -0.32053,2.58642 -0.70555,4.41063 -0.38502,1.8242 -0.70003,4.15525 -0.70003,5.1801 0,1.71649 0.14236,2.039 1.80604,4.09159 2.96782,3.66159 3.50614,5.7113 2.58205,9.83146 -0.96943,4.32233 -0.98073,4.7228 -0.18408,6.52376 l 0.7442,1.68238 -0.73768,1.52384 c -0.40572,0.83811 -0.68433,1.80538 -0.61913,2.14948 0.16936,0.89383 1.96634,0.97492 5.66866,0.2558 3.86301,-0.75033 5.07028,-0.59177 8.97215,1.17838 1.71097,0.77621 3.70885,1.59972 4.43975,1.83002 1.95736,0.61674 3.52437,2.33454 4.67291,5.12255 0.55951,1.3582 1.55211,3.32267 2.20578,4.36548 l 1.18849,1.89604 2.71029,-0.20897 c 1.49066,-0.11493 3.83192,-0.31269 5.2028,-0.43947 4.61073,-0.42639 6.14709,1.18371 6.14923,6.44436 0.001,2.32292 0.14267,3.37935 0.50147,3.73815 0.29376,0.29376 1.62247,0.59502 3.21992,0.73005 4.08507,0.34531 5.39124,0.85118 7.39799,2.86519 2.06879,2.07625 3.03458,4.6198 3.14747,8.28925 0.0815,2.64798 0.52927,3.68657 1.88451,4.37064 1.10841,0.55949 1.41595,0.48287 3.5863,-0.89353 1.55929,-0.98887 1.68802,-1.00946 4.95519,-0.79247 l 3.35431,0.22277 1.32772,-1.60835 c 1.8663,-2.26076 3.37276,-2.64911 5.6722,-1.46224 2.20841,1.13988 3.22785,1.11212 4.63832,-0.12629 1.19928,-1.05298 1.70357,-1.10005 7.21578,-0.67352 1.0314,0.0798 1.33542,-0.0832 2.01073,-1.07835 0.43758,-0.64481 0.89812,-1.91481 1.02341,-2.82222 0.53621,-3.8833 1.26486,-6.62366 2.09458,-7.87745 0.48845,-0.7381 0.88809,-1.55238 0.88809,-1.80952 0,-0.25714 -0.56865,-1.01461 -1.26368,-1.68326 -1.87425,-1.80315 -2.0002,-2.17914 -1.53019,-4.56817 0.50646,-2.5743 0.0102,-3.57938 -2.25594,-4.5687 -2.47646,-1.08114 -3.36517,-2.20194 -4.81545,-6.07304 -0.38755,-1.03445 -1.34454,-2.65445 -2.12666,-3.6 -0.78211,-0.94555 -1.48988,-2.0568 -1.57281,-2.46945 -0.4288,-2.13349 -0.42499,-2.97464 0.0231,-5.11648 0.62358,-2.98039 0.61556,-4.18169 -0.0403,-6.04072 -0.70131,-1.98774 -0.68056,-5.38004 0.0417,-6.80849 0.31395,-0.62096 1.96697,-2.56194 3.67338,-4.31329 2.52859,-2.5952 3.14632,-3.44361 3.33913,-4.58611 0.48913,-2.89847 1.24625,-5.50224 2.07615,-7.13995 0.47157,-0.9306 1.41685,-3.07943 2.10064,-4.77517 1.28328,-3.1825 2.87021,-5.63925 4.83063,-7.47838 1.52196,-1.42781 2.67335,-3.29013 3.16656,-5.1218 0.55451,-2.05927 1.23191,-3.00388 2.62986,-3.66725 2.36667,-1.12306 3.69745,-0.67435 7.73183,2.60702 3.78131,3.07553 5.5566,3.79354 6.65752,2.69262 0.45766,-0.45766 1.19726,-3.03873 2.51171,-8.76538 0.30007,-1.30735 0.98892,-3.29173 1.53077,-4.40972 1.03308,-2.13156 1.23977,-2.2874 5.42464,-4.09014 1.64024,-0.70657 2.2308,-1.22548 3.52778,-3.09977 1.55793,-2.25139 3.25418,-3.4482 5.72858,-4.04187 0.95472,-0.22906 0.99112,-0.19059 0.88194,0.93197 -0.098,1.00787 -0.28578,1.21456 -1.3486,1.48455 -1.50102,0.38131 -2.49021,1.2645 -3.93096,3.50971 -1.16063,1.80868 -3.01095,3.09658 -5.49327,3.82353 -0.8177,0.23947 -1.79171,0.76915 -2.16446,1.17707 -0.71087,0.77796 -2.52242,5.67362 -2.52242,6.81679 0,0.36571 -0.38954,2.16467 -0.86564,3.99768 -0.6933,2.66929 -1.08067,3.5259 -1.94584,4.3029 -2.13408,1.91663 -4.68931,1.16228 -9.66788,-2.85415 -1.95199,-1.57475 -3.4523,-2.52571 -3.98479,-2.52571 -0.99763,0 -2.58432,1.44937 -2.5893,2.36522 -0.007,1.34837 -1.75822,4.27528 -4.08864,6.83487 -1.33887,1.47053 -2.78759,3.45491 -3.21938,4.40972 -3.43013,7.58494 -4.21931,9.73197 -5.03579,13.70022 -0.39979,1.94308 -0.6487,2.31154 -3.62329,5.36352 -1.7567,1.80241 -3.32455,3.48289 -3.48411,3.73441 -0.50538,0.79669 -0.32522,3.54954 0.39776,6.07765 0.65062,2.2751 0.66275,2.59794 0.17638,4.69508 -0.28724,1.23859 -0.52226,3.01678 -0.52226,3.95153 0,1.46998 0.20924,1.96903 1.54901,3.69438 0.85195,1.09715 1.91277,2.98156 2.35736,4.18758 1.15997,3.14657 1.66679,3.78757 3.70875,4.69062 3.04011,1.34448 4.08814,3.41188 3.3897,6.68665 l -0.35257,1.65312 1.55304,1.48808 c 1.91687,1.83669 2.01956,3.0184 0.49676,5.71664 -0.74743,1.32439 -1.21836,2.87993 -1.61065,5.3202 -0.97701,6.07763 -2.53546,8.13824 -5.79974,7.66852 -3.16879,-0.45598 -5.38384,-0.17804 -6.43251,0.80713 -1.22062,1.14671 -3.70025,1.08755 -5.79183,-0.1382 l -1.59026,-0.93195 -1.91033,2.05266 -1.91032,2.05266 -2.03029,-0.0499 c -1.11666,-0.0274 -2.61121,-0.14641 -3.32122,-0.26437 -0.85364,-0.14183 -1.65432,-0.0266 -2.36373,0.34029 -0.72808,0.37651 -2.03372,0.55477 -4.06325,0.55477 h -2.99045 z M 349.58602,163.6225 c -0.36289,-1.11041 -0.27582,-3.79803 0.15716,-4.85069 0.28757,-0.69914 0.36739,-0.20556 0.38512,2.38125 0.0123,1.79475 -0.0463,3.26319 -0.13026,3.26319 -0.0839,0 -0.26935,-0.35719 -0.41202,-0.79375 z"
                 id="path615" />
              <path
                 style="fill:#333333;fill-opacity:1;stroke-width:0.352778"
                 d="m 268.10139,289.47005 c -0.82575,-1.08261 -0.95715,-1.61061 -1.0316,-4.14514 -0.18868,-6.42404 -2.38942,-8.81729 -8.63821,-9.3939 -1.87221,-0.17275 -3.5072,-0.52422 -4.02895,-0.86608 -1.13943,-0.74658 -1.61424,-2.53666 -1.61668,-6.09507 -0.001,-2.02829 -0.14679,-2.98741 -0.49694,-3.27802 -1.04252,-0.86521 -2.59341,-1.02124 -5.2034,-0.5235 -3.21508,0.61314 -6.67839,0.63833 -7.44689,0.0542 -0.83116,-0.6318 -2.95786,-4.30025 -3.80393,-6.56157 -1.04842,-2.80216 -1.88836,-3.79837 -3.78096,-4.48446 -0.91918,-0.33321 -3.03517,-1.2187 -4.70221,-1.96775 -3.37653,-1.51718 -4.71975,-1.6498 -8.4343,-0.83275 -5.91272,1.30056 -8.0662,-0.0785 -6.85625,-4.39077 0.51685,-1.84207 0.51744,-2.13149 0.007,-3.35364 -0.74326,-1.77886 -0.70514,-2.95343 0.19166,-5.90597 0.53187,-1.75106 0.69171,-2.96781 0.54861,-4.17612 -0.19553,-1.65098 -0.51317,-2.24767 -3.24524,-6.09635 -1.68835,-2.37839 -1.81358,-3.54003 -0.93757,-8.6969 0.41314,-2.43205 0.84596,-5.21566 0.96184,-6.1858 0.12943,-1.08363 0.79144,-2.85231 1.71657,-4.58611 0.82823,-1.55223 1.88793,-3.90034 2.35487,-5.21804 l 0.84899,-2.39582 -0.74874,-1.30835 c -0.4118,-0.71959 -1.41224,-1.78079 -2.2232,-2.35822 -1.39258,-0.99156 -1.52707,-1.02035 -2.42147,-0.51833 -0.52085,0.29234 -1.85431,1.73903 -2.96324,3.21484 -1.62947,2.16858 -2.47628,2.93683 -4.41451,4.00496 -4.37608,2.41158 -5.3274,3.87087 -4.69553,7.20272 1.17254,6.1828 -0.25257,8.6319 -6.87498,11.81489 -2.13431,1.02583 -5.30931,2.68731 -7.05556,3.69218 -4.45224,2.56201 -7.24528,3.35963 -10.88988,3.10986 -1.57765,-0.10812 -4.13845,-0.58259 -5.69067,-1.05438 -1.91144,-0.58097 -4.13148,-0.92947 -6.87917,-1.0799 -6.14894,-0.33663 -10.02345,-1.4652 -11.88436,-3.46167 -1.20365,-1.29133 -2.2105,-3.844 -2.21901,-5.62584 -0.01,-2.06038 1.27481,-3.92778 4.01341,-5.83405 2.52536,-1.75782 2.87746,-2.59427 2.35497,-5.59459 -0.58873,-3.38076 -0.95907,-4.00138 -2.64124,-4.42622 -4.22476,-1.06697 -5.11004,-2.16464 -3.80075,-4.71259 0.52402,-1.01977 0.78118,-2.2901 0.87259,-4.31036 0.10189,-2.25193 0.33125,-3.2501 1.07256,-4.66782 1.47866,-2.8279 1.19521,-5.6328 -0.75521,-7.47293 -0.52123,-0.49175 -1.68857,-1.86407 -2.59411,-3.04958 -3.1029,-4.0623 -8.10193,-7.51563 -10.87719,-7.51396 -0.67909,3.5e-4 -2.10784,0.2351 -3.175,0.52153 -3.05954,0.82122 -5.14274,0.66275 -9.27525,-0.70556 -2.05099,-0.67909 -4.06257,-1.23472 -4.47018,-1.23472 -1.2649,0 -2.91421,0.88875 -5.48096,2.95347 -2.75294,2.2145 -4.98531,3.2414 -6.31883,2.90671 -1.27776,-0.3207 -2.63525,-2.30851 -3.1046,-4.54614 -0.31518,-1.50266 -0.30354,-3.05819 0.0512,-6.83931 0.40583,-4.32578 0.39376,-5.14957 -0.10395,-7.09232 -0.75787,-2.95825 -1.807794,-4.92142 -3.029322,-5.66427 -0.556479,-0.33842 -4.28896,-1.31005 -8.294403,-2.15918 -6.656843,-1.41122 -7.434926,-1.50873 -9.055072,-1.13475 -2.362246,0.54526 -3.307709,0.51567 -3.835305,-0.12004 -0.241544,-0.29104 -0.708417,-0.52917 -1.037499,-0.52917 -0.329082,0 -1.458041,-0.2553 -2.5088,-0.56734 -2.271022,-0.67442 -3.64398,-2.00144 -5.494684,-5.31081 -1.071947,-1.91681 -1.341455,-2.81907 -1.560749,-5.22502 -0.183744,-2.01594 -0.591506,-3.65399 -1.329122,-5.33928 -1.538573,-3.51533 -1.965943,-6.30046 -1.453868,-9.47477 l 0.415364,-2.57484 -2.469935,-2.85828 c -2.168913,-2.50994 -4.069479,-5.14349 -6.589918,-9.13144 -0.398727,-0.63088 -0.9787,-1.22925 -1.288827,-1.32971 -0.847687,-0.27459 -10.757871,2.52377 -13.30304,3.75641 -2.987608,1.44691 -4.462141,2.97676 -4.99002,5.17721 -0.51174,2.13317 -1.384613,3.13829 -2.986323,3.43877 -2.053876,0.38531 -3.219984,-0.14102 -6.305885,-2.84621 -2.372642,-2.07992 -3.213586,-3.09074 -4.163285,-5.00428 -0.890462,-1.7942 -1.99087,-3.17378 -4.370777,-5.47964 -3.231202,-3.13068 -3.946878,-3.54549 -8.0835407,-4.685286 C 5.8776,98.30277 4.7597166,96.363589 5.4073009,92.084966 5.7168652,90.039659 5.6784682,89.774152 4.9091762,88.640536 3.7663534,86.956491 3.8498281,86.12534 5.5275763,82.483167 7.4821982,78.239931 7.4299934,77.947609 3.5307689,71.302027 L 1.782576,68.322519 1.6587207,63.796419 c -0.091448,-3.341832 -0.00416,-4.67033 0.3336137,-5.077315 0.251608,-0.30317 1.832123,-1.241612 3.5122556,-2.085425 3.6891203,-1.852785 24.304635,-14.042711 29.968266,-17.720193 2.23132,-1.44883 4.940251,-3.472757 6.019847,-4.497616 4.42854,-4.204 9.519317,-6.66214 18.293822,-8.833377 6.284462,-1.555079 9.993793,-2.807717 14.883533,-5.026155 1.282556,-0.581886 2.48091,-0.955512 2.663007,-0.830279 0.867862,0.596846 1.310594,3.602969 1.332431,9.04714 0.02741,6.8326 0.301728,7.560592 3.419836,9.075565 2.066822,1.004196 5.279062,1.576617 6.760679,1.204757 0.878657,-0.220528 1.01225,-0.456 2.379952,-4.194884 0.609907,-1.667292 1.004454,-2.182191 2.215988,-2.891934 4.110401,-2.40797 9.934939,-1.581273 17.389169,2.468107 3.3471,1.818252 4.97433,3.477034 6.07769,6.19554 0.61004,1.503059 1.07304,2.095566 1.97281,2.524632 1.56618,0.746859 6.58356,1.457982 8.32367,1.179725 2.10598,-0.336759 12.53237,-5.690405 15.15924,-7.783819 1.26118,-1.005066 3.08681,-2.400652 4.05695,-3.101304 2.54332,-1.836832 4.80402,-4.294941 6.73415,-7.322218 4.16781,-6.536881 5.2952,-7.056352 10.3555,-4.771561 3.22206,1.454801 6.81117,2.433599 7.78744,2.123741 1.40021,-0.44441 1.42875,-1.287701 0.14995,-4.431131 -1.62953,-4.005558 -1.86445,-6.082309 -0.9276,-8.200205 0.85065,-1.9230339 2.07956,-2.7791755 5.4379,-3.7883859 1.30539,-0.3922836 3.21039,-1.1028905 4.23333,-1.5791264 2.12265,-0.988215 3.86307,-1.1179573 4.51175,-0.3363362 0.3631,0.4375104 0.29751,1.0339567 -0.35567,3.2342211 -0.78104,2.6309284 -0.78445,2.7101784 -0.13743,3.1980264 0.47422,0.35756 1.21688,0.442975 2.60374,0.299458 1.06715,-0.110433 3.16788,-0.01764 4.66829,0.206207 3.33084,0.496929 3.46468,0.407867 5.8566,-3.8971964 1.12943,-2.0327831 2.24369,-3.474005 3.55076,-4.5926983 1.88531,-1.6135841 1.93447,-1.6315428 4.79803,-1.7525225 2.37152,-0.1001918 3.1455,0.00648 4.29239,0.5915772 2.29515,1.1708981 2.34283,1.3088837 2.06276,5.9701574 l -0.2497,4.1559136 0.96497,0.964978 c 1.22817,1.228166 3.91816,2.054745 5.5149,1.69462 2.68242,-0.604984 3.78025,-1.756422 5.40628,-5.6702919 1.32553,-3.1905687 2.16201,-4.300106 3.73216,-4.9504861 1.42748,-0.5912822 2.58307,-0.1964601 4.4572,1.5228574 2.45588,2.2530149 3.05492,3.9057096 2.7486,7.5831196 -0.52184,6.264625 -0.39299,6.979965 1.76708,9.809805 0.6422,0.841329 1.26997,1.995606 1.39504,2.56506 0.35595,1.620638 1.2507,2.144555 4.58401,2.684147 3.87666,0.627551 4.56255,1.214191 5.28559,4.520745 0.30702,1.404047 1.93536,2.241155 5.34673,2.748683 3.1834,0.473611 3.64887,0.396693 12.11973,-2.002756 4.69238,-1.32916 8.90705,-0.945487 10.31395,0.938908 0.36976,0.495252 0.88448,2.122339 1.14382,3.61575 0.25933,1.49341 0.73636,3.119494 1.06005,3.613517 0.80829,1.2336 2.52205,2.210699 4.3611,2.486483 1.07786,0.161636 2.02234,0.647806 3.14338,1.618058 0.8814,0.76285 1.81046,1.307214 2.06457,1.209703 3.12755,-1.200154 5.16165,-1.07853 8.27881,0.495007 5.45067,2.751487 6.33283,4.949853 5.09393,12.694175 -0.76248,4.76625 -1.46223,6.946664 -2.78554,8.679752 -0.92413,1.210296 -1.19878,1.960319 -1.36857,3.737345 -0.11684,1.222749 -0.61681,3.212214 -1.11106,4.421032 -0.59613,1.457988 -0.89863,2.866076 -0.89863,4.182897 0,3.18704 -1.41487,5.688993 -5.47549,9.682515 -3.64361,3.583393 -4.01179,4.077501 -4.43435,5.951079 -0.35126,1.557468 0.14805,2.514924 2.5015,4.796773 2.26379,2.1949 2.82222,3.23717 2.82222,5.26742 0,1.42496 0.099,1.62314 0.91261,1.82735 0.60618,0.15214 1.48732,-0.0401 2.6242,-0.57261 1.5506,-0.72627 2.02052,-0.77849 4.99641,-0.55528 1.80666,0.13551 5.66609,0.37509 8.57651,0.5324 5.71828,0.30907 6.02241,0.38722 13.03454,3.34938 6.0834,2.56983 6.55008,2.92237 9.38861,7.09244 3.01832,4.4342 4.89031,6.16505 7.82894,7.23865 1.21191,0.44276 3.0369,1.10829 4.05555,1.47895 1.32419,0.48184 1.85208,0.86 1.85208,1.32672 0,1.0719 -2.1633,3.58624 -4.74587,5.51598 -3.35366,2.50591 -3.50363,2.87156 -2.64766,6.45536 1.14384,4.7891 1.13619,4.78335 7.05427,5.30268 5.57212,0.48898 7.39871,1.53071 7.38887,4.21398 l -0.006,1.62102 -0.7266,-1.13444 c -1.27896,-1.99683 -2.73024,-2.60796 -7.01033,-2.95201 -4.14805,-0.33344 -6.51569,-1.05543 -7.11143,-2.16858 -0.67751,-1.26594 -1.78337,-5.70485 -1.84062,-7.38827 -0.0695,-2.04429 0.60726,-3.03784 3.60499,-5.29225 1.96446,-1.47735 3.57086,-3.08818 3.57086,-3.58071 0,-0.099 -1.25485,-0.59787 -2.78855,-1.10864 -4.63118,-1.54232 -6.38988,-3.01702 -9.90024,-8.30149 -2.76012,-4.15506 -2.78006,-4.16847 -11.3001,-7.60487 l -5.11528,-2.06315 -5.29167,-0.26544 c -2.91041,-0.14599 -6.49125,-0.37084 -7.9574,-0.49967 -2.34013,-0.20561 -2.85403,-0.13816 -4.20735,0.55225 -1.18218,0.6031 -1.94451,0.74776 -3.26963,0.62043 -2.29711,-0.22072 -2.90657,-0.87567 -2.81313,-3.02309 0.0823,-1.89214 -0.22023,-2.3995 -3.36857,-5.64876 -1.94939,-2.01189 -2.45251,-3.365363 -2.01163,-5.41165 0.45691,-2.12071 1.26468,-3.248466 4.79373,-6.692678 4.09567,-3.997222 5.24316,-6.012303 5.24859,-9.216908 0.002,-1.350603 0.3002,-2.765785 0.88539,-4.205961 0.48507,-1.193761 0.88283,-2.73842 0.88391,-3.432574 0.003,-1.934129 0.60633,-3.688528 1.77351,-5.157223 0.58308,-0.73371 1.2879,-2.141837 1.56628,-3.129167 0.81361,-2.885687 1.70631,-9.56928 1.45619,-10.902484 -0.28761,-1.533109 -2.69131,-3.830373 -5.25847,-5.025615 -2.14653,-0.999409 -2.65309,-1.031593 -5.00559,-0.318033 -2.19118,0.664626 -3.24912,0.444602 -4.98766,-1.037294 -0.76384,-0.651083 -1.97997,-1.277112 -2.7632,-1.42241 -1.79612,-0.33321 -3.23594,-1.084711 -4.33311,-2.26163 -1.05428,-1.130914 -1.44587,-2.090029 -1.89454,-4.640182 -0.55097,-3.131636 -0.9424,-3.826679 -2.37997,-4.225986 -2.1713,-0.603108 -3.79065,-0.413449 -9.1592,1.072731 -6.49423,1.797802 -7.97496,1.959159 -11.63595,1.267979 -3.80996,-0.71931 -5.22242,-1.585762 -5.73677,-3.519155 -0.74855,-2.813745 -1.19583,-3.141871 -5.06584,-3.716354 -2.95876,-0.439211 -4.06453,-1.196789 -4.85983,-3.329537 -0.33166,-0.889406 -1.15859,-2.344932 -1.83761,-3.234505 -1.58169,-2.072119 -1.76828,-3.181538 -1.48488,-8.828624 l 0.2327,-4.636728 -1.21917,-1.5644932 c -0.67055,-0.8604712 -1.69742,-1.8468181 -2.28195,-2.191882 -1.0546,-0.6225625 -1.07087,-0.6198486 -2.11454,0.3527777 -0.58885,0.5487758 -1.54669,2.1939687 -2.1763,3.7380565 -1.32034,3.238024 -2.35372,4.574926 -4.34642,5.623003 -1.89697,0.99773 -5.48604,1.057816 -7.27576,0.121807 -3.23351,-1.691093 -4.16204,-3.687342 -3.54999,-7.632116 0.5512,-3.5525377 0.50996,-3.7972738 -0.77154,-4.578617 -1.37489,-0.8382857 -4.42307,-0.9440734 -5.83835,-0.2026211 -1.50142,0.7865795 -3.03384,2.6058848 -4.95911,5.8875263 -2.38035,4.0573368 -2.87651,4.3563648 -6.72502,4.0530568 -1.66476,-0.131203 -4.27139,-0.271611 -5.79252,-0.312018 -2.43339,-0.06464 -2.84666,-0.173533 -3.43958,-0.906299 -0.80984,-1.000847 -0.86044,-2.606667 -0.14595,-4.6317619 0.52416,-1.4856093 0.52225,-1.4950182 -0.26458,-1.3099824 -2.89193,0.6800794 -8.60129,3.0834562 -9.32577,3.9257223 -1.22241,1.421133 -1.09181,3.649769 0.44746,7.635424 0.94605,2.449642 1.20739,3.565348 1.04184,4.447793 -0.57731,3.077326 -5.09267,3.192473 -11.37455,0.290064 -1.46913,-0.678782 -3.03504,-1.234149 -3.4798,-1.234149 -0.94041,0 -2.2751,1.546805 -5.18925,6.013961 -2.15742,3.30715 -3.88581,5.029674 -8.38757,8.359123 -1.63772,1.211237 -3.45392,2.579853 -4.03601,3.041367 -0.58208,0.461515 -3.66178,2.169252 -6.84377,3.794972 l -5.78544,2.955854 -3.91595,-0.01013 c -6.53266,-0.0169 -8.88432,-1.146132 -10.26425,-4.92876 -0.87489,-2.398208 -2.39924,-3.733962 -6.63814,-5.816844 -5.52165,-2.713194 -9.534463,-3.444609 -12.701497,-2.315103 -1.891588,0.674625 -2.56183,1.393096 -3.077461,3.298912 -1.071901,3.961804 -1.804977,4.656642 -4.912918,4.656642 -3.264535,0 -6.724128,-1.102712 -8.503744,-2.71049 -2.066939,-1.867355 -2.599235,-4.041598 -2.338811,-9.55323 0.176036,-3.725631 -0.04032,-5.953484 -0.652872,-6.722695 -0.04941,-0.06204 -0.700528,0.196397 -1.446932,0.574309 -2.814257,1.424884 -8.405139,3.292095 -14.477253,4.83503 -8.685845,2.207088 -13.073984,4.380479 -18.324708,9.076001 -2.798752,2.502815 -7.265724,5.423459 -17.262857,11.286992 -4.449232,2.609571 -10.232638,6.001738 -12.852014,7.538145 -2.6193747,1.536411 -5.55625,3.188589 -6.5263889,3.67151 L 3.546465,59.817643 3.4316849,62.463476 c -0.1469617,3.387665 0.3932377,5.819436 1.7728316,7.980613 3.7609871,5.891703 4.1253752,8.413454 1.9015524,13.159694 -0.905498,1.93258 -1.2690377,3.092192 -1.0583334,3.375857 1.663232,2.239169 1.6260298,2.077794 1.1808609,5.122319 -0.3915473,2.677809 -0.3726741,2.946481 0.2682629,3.818904 0.4525169,0.61595 1.4075965,1.160385 2.7792457,1.58428 4.803879,1.484594 5.174354,1.699757 8.555137,4.968617 2.630138,2.54306 3.596599,3.76516 4.679498,5.91725 1.019735,2.02656 1.745582,2.97642 2.87108,3.75714 0.828472,0.57468 1.965187,1.52926 2.526033,2.12129 1.159157,1.22361 2.666685,1.68661 3.696718,1.13535 0.421809,-0.22574 0.927288,-1.15392 1.269508,-2.33112 1.28137,-4.40776 3.926995,-5.95554 15.691097,-9.17984 4.926271,-1.35018 5.71946,-1.0566 8.158262,3.01965 1.359264,2.27188 3.998028,5.73475 6.442788,8.4549 l 1.733272,1.92852 -0.286548,2.30482 c -0.509524,4.09829 -0.289828,6.0374 1.086521,9.59003 0.839643,2.16728 1.344044,4.14482 1.471104,5.76756 0.150421,1.92112 0.464693,2.96354 1.415356,4.69465 2.049381,3.73184 2.937676,4.51923 5.844159,5.1803 1.39343,0.31693 2.712198,0.72453 2.930599,0.90579 0.247626,0.20551 1.13653,0.18106 2.361544,-0.065 2.186274,-0.43906 2.529086,-0.39276 11.827903,1.59747 3.215241,0.68816 6.258532,1.54573 6.906472,1.94618 1.349932,0.8343 2.730222,3.21376 3.587882,6.18509 0.51502,1.78425 0.56178,2.79226 0.31094,6.70278 -0.37248,5.80698 -0.27164,8.11867 0.41752,9.57096 1.0241,2.15814 1.84936,1.96441 6.13602,-1.44049 1.64365,-1.30554 3.35826,-2.51431 3.81025,-2.68616 1.51768,-0.57702 4.26618,-0.33088 6.86791,0.61505 4.42702,1.60956 5.55248,1.75284 8.44832,1.07553 3.5316,-0.82602 5.72358,-0.75946 7.86103,0.23868 2.72616,1.27306 6.97506,4.85659 8.81421,7.43393 0.90783,1.27222 2.05216,2.62899 2.54296,3.01505 2.02899,1.596 2.52684,6.41464 0.94212,9.11875 -0.76273,1.3015 -0.94936,2.11103 -1.03833,4.50375 -0.0772,2.07686 -0.31668,3.32522 -0.83139,4.33412 -0.83522,1.63716 -0.82696,1.64644 2.18899,2.46038 2.70034,0.72875 3.54528,1.82877 4.1476,5.39972 0.64218,3.80731 0.34675,5.1641 -1.44758,6.64815 -3.6071,2.98334 -4.91164,4.45768 -4.91164,5.55096 0,2.72819 2.21287,5.31064 5.37489,6.27259 1.02138,0.31073 3.92081,0.71464 6.44317,0.89758 3.12399,0.22658 5.65458,0.64177 7.9375,1.30227 2.50984,0.72617 4.12114,0.96965 6.41684,0.96965 3.02027,0 3.11648,-0.0272 6.52639,-1.84523 1.90352,-1.01488 5.57946,-2.90058 8.16877,-4.19043 5.05719,-2.51923 6.87163,-3.97206 7.23601,-5.79396 0.12658,-0.63291 0.0497,-2.55767 -0.17081,-4.27724 -0.64349,-5.01768 0.28451,-6.60518 5.52467,-9.45077 1.6774,-0.91089 2.49755,-1.678 3.87148,-3.62106 2.36655,-3.3469 3.39267,-4.16123 5.22803,-4.14899 2.72324,0.0182 6.23473,3.61439 6.23473,6.38522 0,1.65055 -1.23152,5.0046 -3.11035,8.47103 -1.13377,2.0918 -1.4775,3.17924 -1.76857,5.59504 -0.1987,1.64924 -0.62129,4.18881 -0.93907,5.64349 -0.76305,3.49288 -0.50214,4.61079 1.77043,7.58568 1.03755,1.3582 2.0552,2.91634 2.26145,3.46255 0.60051,1.5903 0.43992,5.23816 -0.33776,7.67252 l -0.71277,2.23114 0.7785,2.17071 c 0.74666,2.0819 0.75417,2.222 0.1836,3.42438 -1.48187,3.1228 -0.6123,3.63969 4.66137,2.7708 4.41172,-0.72687 6.01756,-0.58375 8.75192,0.78003 0.92973,0.46371 2.81548,1.26748 4.19055,1.78616 1.37508,0.51868 2.90677,1.37563 3.40376,1.90433 0.49699,0.5287 1.69971,2.62814 2.6727,4.66544 2.7563,5.7712 2.66123,5.71986 8.70952,4.70411 3.16114,-0.53087 3.69054,-0.53798 5.09381,-0.0684 2.44165,0.81706 2.95775,1.79062 3.00698,5.67232 0.0613,4.83177 0.20697,4.99114 4.89834,5.35797 3.04619,0.23819 5.80358,1.46448 7.09238,3.15418 1.30979,1.71723 2.30988,5.10892 2.30988,7.83369 0,2.01292 0.11509,2.38043 1.09488,3.49635 1.34562,1.53257 2.06532,1.55643 4.27026,0.14151 1.71117,-1.09804 1.74498,-1.10384 5.03195,-0.86256 l 3.3092,0.24291 1.89807,-1.95966 c 2.22108,-2.29313 3.41357,-2.51899 5.7387,-1.08691 1.85195,1.14065 2.48082,1.10913 3.97072,-0.19903 0.91877,-0.80668 1.48033,-1.04455 2.15949,-0.91472 0.50481,0.0965 1.20501,0.0218 1.556,-0.16608 0.43372,-0.23212 1.17764,-0.1834 2.32201,0.15206 3.13601,0.9193 3.95634,-0.0951 5.03929,-6.23153 0.52149,-2.95499 0.94746,-4.31891 1.72982,-5.53877 0.57087,-0.89011 1.03795,-1.73771 1.03795,-1.88354 0,-0.14585 -0.73007,-0.97472 -1.62238,-1.84195 l -1.62238,-1.57677 0.24861,-2.80854 c 0.29135,-3.29129 0.18426,-3.49342 -2.53138,-4.77812 -2.23651,-1.05804 -3.27934,-2.34069 -4.37215,-5.37761 -0.44452,-1.23531 -1.35883,-2.90219 -2.0318,-3.70416 -2.2916,-2.73087 -2.63255,-4.61919 -1.62995,-9.0273 0.52761,-2.31972 0.5187,-2.5188 -0.22194,-4.95718 -1.4082,-4.63619 -0.4553,-7.5776 3.53792,-10.92091 2.51715,-2.10748 3.15008,-3.15451 3.72577,-6.16334 0.27887,-1.45754 1.00295,-3.7258 1.60905,-5.04058 0.60611,-1.31477 1.64729,-3.72356 2.31374,-5.35287 1.3875,-3.3921 2.00284,-4.35408 4.60769,-7.20338 2.07764,-2.27261 2.75616,-3.41473 3.48333,-5.86338 0.55159,-1.85741 1.68463,-3.10253 3.1895,-3.505 1.89853,-0.50774 3.53132,0.10341 6.22168,2.3288 1.40679,1.16367 3.1133,2.45438 3.79222,2.86825 1.41109,0.8602 3.24946,0.98602 3.84914,0.26345 0.48309,-0.58208 1.58243,-4.45042 2.12665,-7.48323 0.40466,-2.25509 1.75919,-6.03499 2.64962,-7.39396 0.28683,-0.43776 1.12245,-0.9881 1.85693,-1.22297 3.65698,-1.1694 4.49872,-1.72709 6.04226,-4.00327 1.55291,-2.28999 3.0228,-3.38148 5.43551,-4.03623 1.29597,-0.35169 1.32292,-0.33916 1.32292,0.61506 0,0.84095 -0.20488,1.03487 -1.49931,1.4191 -1.89089,0.56129 -2.19073,0.81381 -3.62078,3.04934 -1.41706,2.21523 -2.92368,3.38943 -5.36815,4.18373 -1.01485,0.32976 -2.14467,0.86566 -2.51071,1.19087 -0.85428,0.759 -2.06392,3.88044 -2.55323,6.58853 -0.57133,3.16196 -1.75007,7.28138 -2.34204,8.18485 -0.28752,0.43882 -1.06947,0.94879 -1.73766,1.13329 -2.02303,0.55859 -4.29577,-0.36673 -7.79336,-3.17296 -3.29625,-2.64469 -4.25105,-3.07662 -5.69722,-2.57729 -0.71687,0.24752 -1.07709,0.78572 -1.62774,2.43193 -0.95926,2.86784 -1.36532,3.52818 -3.73549,6.07481 -2.40017,2.57886 -3.40342,4.21482 -4.88539,7.96646 -0.59855,1.51525 -1.48572,3.5393 -1.97148,4.4979 -0.48576,0.9586 -1.10891,2.92258 -1.38478,4.3644 -0.66517,3.47654 -1.07323,4.17806 -4.21511,7.24642 -1.74631,1.70545 -2.87249,3.13677 -3.25396,4.13562 -0.5465,1.43099 -0.54393,1.67773 0.0407,3.90438 0.97358,3.70803 1.01571,4.56775 0.36023,7.35112 -0.77366,3.28522 -0.53569,4.57207 1.24367,6.72533 0.77026,0.93212 1.8081,2.76153 2.30632,4.06534 1.18528,3.10183 1.92295,3.98282 4.36876,5.21746 2.56258,1.29358 3.02524,2.25663 2.71059,5.64219 -0.21987,2.36568 -0.1996,2.44945 0.78597,3.24769 2.41513,1.9561 2.65941,3.60901 0.92149,6.23518 -0.65131,0.98419 -1.10939,2.50351 -1.61059,5.34185 -0.77426,4.38468 -1.24788,5.5634 -2.6966,6.71123 -0.85453,0.67705 -1.24289,0.74527 -3.09386,0.54348 -3.31453,-0.36135 -4.91925,-0.10116 -6.11383,0.99131 -1.19323,1.09122 -4.17958,1.05295 -5.70262,-0.0731 -1.50475,-1.11251 -2.56987,-0.79066 -3.9735,1.20068 -0.61627,0.87432 -1.49275,1.68309 -1.94774,1.79729 -0.45498,0.11419 -2.20638,0.10052 -3.892,-0.0304 -2.46632,-0.19153 -3.20252,-0.13339 -3.77031,0.29778 -0.50252,0.38161 -1.58867,0.53902 -3.77441,0.54701 l -3.06885,0.0112 z m 81.5591,-126.55546 c -0.16213,-0.7289 -0.16175,-2.07827 7.1e-4,-2.99861 l 0.29566,-1.67334 0.1171,1.49931 c 0.0644,0.82461 0.064,2.17399 -7e-4,2.99861 l -0.11797,1.4993 z"
                 id="path613" />
            </g>
            <path
               style="fill:none;stroke:#000000;stroke-width:1.765;stroke-linecap:butt;stroke-linejoin:miter;stroke-miterlimit:4;stroke-dasharray:none;stroke-opacity:1"
               d="m 348.43221,149.29466 c 0.0634,0.12693 0.10327,0.26876 0.19037,0.38077 0.34327,0.44134 0.8055,0.78839 1.14231,1.2375 0.78439,1.04585 1.31771,2.23962 1.71347,3.42693 0.0454,0.1363 -0.0636,0.34879 0,0.47596 0.0143,0.0284 0.081,-0.0284 0.0952,0 0.0998,0.19961 -0.0549,0.54203 0,0.76154 0.25302,1.01214 0.0145,1.95521 -0.28559,2.85576 -0.059,0.17707 -0.59878,0.87055 -0.76153,0.95193 -0.0284,0.0142 -0.0728,-0.0224 -0.0952,0 -0.12669,0.12668 -0.22916,0.49705 -0.28557,0.66634 -0.0426,0.12772 -0.22537,0.16517 -0.28559,0.28558 -0.0545,0.10893 -0.0795,0.53969 -0.19039,0.76154 -0.0893,0.1787 -0.0371,1.29559 0,1.33269 0.0225,0.0224 0.0728,-0.0224 0.0952,0 0.12941,0.12941 -0.11829,1.2865 0,1.52308 0.0143,0.0284 0.081,-0.0284 0.0952,0 0.0284,0.0568 -0.0201,0.13018 0,0.19038 0.0143,0.0426 0.0635,0.0635 0.0952,0.0952 0.0317,0.0952 0.0709,0.18824 0.0952,0.28558 0.0222,0.0893 -0.0589,0.32188 0,0.38077 0.0225,0.0224 0.081,-0.0284 0.0952,0 0.0839,0.16778 0.0345,0.48434 0.0952,0.66635 0.0143,0.0426 0.081,0.0526 0.0952,0.0952 0.0445,0.1336 -0.0627,0.3506 0,0.47596 0.22159,0.44316 0.16282,0.5561 0.28559,1.04712 0.0414,0.16577 0.1623,0.30741 0.19037,0.47596 0.0775,0.4649 -0.10139,0.27317 0.0952,0.66634 0.0401,0.0803 0.16861,0.10332 0.19039,0.19039 0.0462,0.1847 -0.0373,0.38446 0,0.57115 0.0335,0.16756 0.14893,0.31019 0.19037,0.47596 0.0488,0.19507 0.0351,0.48594 0.0952,0.66635 0.0101,0.0301 0.0728,-0.0224 0.0952,0 0.0449,0.0449 -0.0201,0.13018 0,0.19038 0.0225,0.0673 0.078,0.12156 0.0952,0.19039 0.0486,0.19418 0,0.46118 0,0.66635 0,0.30438 0.0591,0.65663 0,0.95192 -0.0673,0.33651 -0.24948,0.40376 -0.38076,0.66634 -0.0284,0.0568 0.0352,0.13759 0,0.19039 -0.0747,0.11201 -0.24302,0.15786 -0.28559,0.28558 -0.0201,0.0602 0.0201,0.13018 0,0.19038 -0.0119,0.0357 -0.58793,0.51235 -0.66636,0.57116 -0.19478,0.1461 -1.10985,0.79397 -1.14231,0.76153 -0.0225,-0.0224 0,-0.0635 0,-0.0952 -0.0317,-0.0317 -0.0634,-0.0635 -0.0952,-0.0952"
               id="path1785" />
          </g>
        </g>
      </g>
    </g>
  </g>
</svg>
