<?xml version="1.0" encoding="UTF-8" standalone="no"?>
<svg
   xmlns:dc="http://purl.org/dc/elements/1.1/"
   xmlns:cc="http://creativecommons.org/ns#"
   xmlns:rdf="http://www.w3.org/1999/02/22-rdf-syntax-ns#"
   xmlns:svg="http://www.w3.org/2000/svg"
   xmlns="http://www.w3.org/2000/svg"
   xmlns:sodipodi="http://sodipodi.sourceforge.net/DTD/sodipodi-0.dtd"
   xmlns:inkscape="http://www.inkscape.org/namespaces/inkscape"
   sodipodi:docname="TOP_onder.svg"
   inkscape:version="1.0 (4035a4fb49, 2020-05-01)"
   id="svg3756"
   version="1.1"
   viewBox="0 0 600.23877 300.23724"
   height="300.23724mm"
   width="600.23877mm">
  <metadata
     id="metadata191">
    <rdf:RDF>
      <cc:Work
         rdf:about="">
        <dc:format>image/svg+xml</dc:format>
        <dc:type
           rdf:resource="http://purl.org/dc/dcmitype/StillImage" />
        <dc:title></dc:title>
      </cc:Work>
    </rdf:RDF>
  </metadata>
  <sodipodi:namedview
     inkscape:document-rotation="0"
     inkscape:snap-global="false"
     inkscape:current-layer="g3889"
     inkscape:window-maximized="1"
     inkscape:window-y="-8"
     inkscape:window-x="-8"
     inkscape:window-height="1017"
     inkscape:window-width="1920"
     inkscape:cy="169.83629"
     inkscape:cx="908.14367"
     inkscape:zoom="0.25000001"
     showgrid="false"
     inkscape:document-units="mm"
     inkscape:pagecheckerboard="0"
     inkscape:pageopacity="0.0"
     inkscape:pageshadow="2"
     borderopacity="1.0"
     bordercolor="#666666"
     pagecolor="#ffffff"
     id="namedview3758" />
  <defs
     id="defs3753">
    <marker
       style="overflow:visible"
       refY="0"
       refX="0"
       orient="auto"
       id="DistanceX">
      <path
         id="path3762"
         style="stroke:#000000;stroke-width:0.5"
         d="M 3,-3 -3,3 M 0,-5 V 5" />
    </marker>
    <pattern
       y="0"
       x="0"
       height="8"
       width="8"
       patternUnits="userSpaceOnUse"
       id="Hatch">
      <path
         id="path3765"
         linecap="square"
         stroke-width="0.25"
         stroke="#000000"
         d="M8 4 l-4,4" />
      <path
         id="path3767"
         linecap="square"
         stroke-width="0.25"
         stroke="#000000"
         d="M6 2 l-4,4" />
      <path
         id="path3769"
         linecap="square"
         stroke-width="0.25"
         stroke="#000000"
         d="M4 0 l-4,4" />
    </pattern>
    <symbol
       id="*Model_Space" />
    <symbol
       id="*Paper_Space" />
    <symbol
       id="*Paper_Space0" />
    <clipPath
       id="clipPath1607"
       clipPathUnits="userSpaceOnUse">
      <rect
         y="337.11398"
         x="-854.112"
         height="1187.1439"
         width="2550.1809"
         id="rect1609"
         style="fill:none;stroke:#ff0000;stroke-width:0.377954;stroke-miterlimit:4;stroke-dasharray:none;stroke-opacity:1" />
    </clipPath>
    <clipPath
       id="clipPath1603"
       clipPathUnits="userSpaceOnUse">
      <rect
         y="337.11398"
         x="-854.112"
         height="1187.1439"
         width="2550.1809"
         id="rect1605"
         style="fill:none;stroke:#ff0000;stroke-width:0.377954;stroke-miterlimit:4;stroke-dasharray:none;stroke-opacity:1" />
    </clipPath>
    <clipPath
       id="clipPath1599"
       clipPathUnits="userSpaceOnUse">
      <rect
         y="337.11398"
         x="-854.112"
         height="1187.1439"
         width="2550.1809"
         id="rect1601"
         style="fill:none;stroke:#ff0000;stroke-width:0.377954;stroke-miterlimit:4;stroke-dasharray:none;stroke-opacity:1" />
    </clipPath>
    <clipPath
       id="clipPath1571"
       clipPathUnits="userSpaceOnUse">
      <rect
         y="337.11398"
         x="-854.112"
         height="1187.1439"
         width="2550.1809"
         id="rect1573"
         style="fill:none;stroke:#ff0000;stroke-width:0.377954;stroke-miterlimit:4;stroke-dasharray:none;stroke-opacity:1" />
    </clipPath>
    <clipPath
       id="clipPath1539"
       clipPathUnits="userSpaceOnUse">
      <rect
         y="337.11398"
         x="-854.112"
         height="1187.1439"
         width="2550.1809"
         id="rect1541"
         style="fill:none;stroke:#ff0000;stroke-width:0.377954;stroke-miterlimit:4;stroke-dasharray:none;stroke-opacity:1" />
    </clipPath>
    <clipPath
       id="clipPath1419"
       clipPathUnits="userSpaceOnUse">
      <rect
         y="337.11398"
         x="-854.112"
         height="1187.1439"
         width="2550.1809"
         id="rect1421"
         style="fill:none;stroke:#ff0000;stroke-width:0.377954;stroke-miterlimit:4;stroke-dasharray:none;stroke-opacity:1" />
    </clipPath>
    <clipPath
       id="clipPath1415"
       clipPathUnits="userSpaceOnUse">
      <rect
         y="337.11398"
         x="-854.112"
         height="1187.1439"
         width="2550.1809"
         id="rect1417"
         style="fill:none;stroke:#ff0000;stroke-width:0.377954;stroke-miterlimit:4;stroke-dasharray:none;stroke-opacity:1" />
    </clipPath>
    <clipPath
       id="clipPath1319"
       clipPathUnits="userSpaceOnUse">
      <rect
         y="337.11398"
         x="-854.112"
         height="1187.1439"
         width="2550.1809"
         id="rect1321"
         style="fill:none;stroke:#ff0000;stroke-width:0.377954;stroke-miterlimit:4;stroke-dasharray:none;stroke-opacity:1" />
    </clipPath>
    <clipPath
       id="clipPath1291"
       clipPathUnits="userSpaceOnUse">
      <rect
         y="337.11398"
         x="-854.112"
         height="1187.1439"
         width="2550.1809"
         id="rect1293"
         style="fill:none;stroke:#ff0000;stroke-width:0.377954;stroke-miterlimit:4;stroke-dasharray:none;stroke-opacity:1" />
    </clipPath>
    <clipPath
       id="clipPath1287"
       clipPathUnits="userSpaceOnUse">
      <rect
         y="337.11398"
         x="-854.112"
         height="1187.1439"
         width="2550.1809"
         id="rect1289"
         style="fill:none;stroke:#ff0000;stroke-width:0.377954;stroke-miterlimit:4;stroke-dasharray:none;stroke-opacity:1" />
    </clipPath>
    <clipPath
       id="clipPath1283"
       clipPathUnits="userSpaceOnUse">
      <rect
         y="337.11398"
         x="-854.112"
         height="1187.1439"
         width="2550.1809"
         id="rect1285"
         style="fill:none;stroke:#ff0000;stroke-width:0.377954;stroke-miterlimit:4;stroke-dasharray:none;stroke-opacity:1" />
    </clipPath>
    <clipPath
       id="clipPath1279"
       clipPathUnits="userSpaceOnUse">
      <rect
         y="337.11398"
         x="-854.112"
         height="1187.1439"
         width="2550.1809"
         id="rect1281"
         style="fill:none;stroke:#ff0000;stroke-width:0.377954;stroke-miterlimit:4;stroke-dasharray:none;stroke-opacity:1" />
    </clipPath>
    <clipPath
       id="clipPath1275"
       clipPathUnits="userSpaceOnUse">
      <rect
         y="337.11398"
         x="-854.112"
         height="1187.1439"
         width="2550.1809"
         id="rect1277"
         style="fill:none;stroke:#ff0000;stroke-width:0.377954;stroke-miterlimit:4;stroke-dasharray:none;stroke-opacity:1" />
    </clipPath>
    <clipPath
       id="clipPath1271"
       clipPathUnits="userSpaceOnUse">
      <rect
         y="337.11398"
         x="-854.112"
         height="1187.1439"
         width="2550.1809"
         id="rect1273"
         style="fill:none;stroke:#ff0000;stroke-width:0.377954;stroke-miterlimit:4;stroke-dasharray:none;stroke-opacity:1" />
    </clipPath>
  </defs>
  <g
     transform="translate(241.11804,7.9970815)"
     id="layer1"
     inkscape:groupmode="layer"
     inkscape:label="Layer 1">
    <g
       style="fill:#0000ff;stroke:#0000ff"
       transform="matrix(0.26458333,0,0,0.26458333,-56.992122,-97.14182)"
       id="g3889"
       inkscape:label="0">
      <circle
         style="fill:none;fill-opacity:1;stroke:#ff0000;stroke-width:0.44187;stroke-miterlimit:4;stroke-dasharray:none;stroke-opacity:1"
         id="path2854-9-1-22"
         cx="93.091019"
         cy="394.42499"
         r="22.267254" />
      <circle
         style="fill:none;fill-opacity:1;stroke:#ff0000;stroke-width:0.44187;stroke-miterlimit:4;stroke-dasharray:none;stroke-opacity:1"
         id="path2854-9-1-26"
         cx="253.02832"
         cy="409.0499"
         r="22.267254" />
      <circle
         style="fill:none;fill-opacity:1;stroke:#ff0000;stroke-width:0.44187;stroke-miterlimit:4;stroke-dasharray:none;stroke-opacity:1"
         id="path2854-9-1-14"
         cx="605.16754"
         cy="404.10016"
         r="22.267254" />
      <rect
         y="-758.94904"
         x="-657.92474"
         height="1095.6851"
         width="2191.748"
         id="rect1022"
         style="fill:none;stroke:#ff0000;stroke-width:0.377953" />
      <path
         transform="translate(-5.0629164e-6,0.23178813)"
         d="M 115.35827,394.42499 A 22.267254,22.267254 0 0 1 93.091019,416.69224 22.267254,22.267254 0 0 1 70.823765,394.42499 22.267254,22.267254 0 0 1 93.091019,372.15773 22.267254,22.267254 0 0 1 115.35827,394.42499"
         style="fill:none;fill-opacity:1;stroke:#ff0000;stroke-width:0.44187;stroke-miterlimit:4;stroke-dasharray:none;stroke-opacity:1"
         id="path2854-9-1-22-6"
         clip-path="url(#clipPath1607)" />
      <path
         transform="translate(-5.0629164e-6,0.23178813)"
         d="m 167.35827,436.92499 a 22.267254,22.267254 0 0 1 -22.26725,22.26725 22.267254,22.267254 0 0 1 -22.26726,-22.26725 22.267254,22.267254 0 0 1 22.26726,-22.26726 22.267254,22.267254 0 0 1 22.26725,22.26726"
         style="fill:none;fill-opacity:1;stroke:#ff0000;stroke-width:0.44187;stroke-miterlimit:4;stroke-dasharray:none;stroke-opacity:1"
         id="path2854-9-1-64"
         clip-path="url(#clipPath1603)" />
      <path
         transform="translate(-5.0629164e-6,0.23178813)"
         d="M 63.858276,349.92499 A 22.267254,22.267254 0 0 1 41.591022,372.19224 22.267254,22.267254 0 0 1 19.323769,349.92499 22.267254,22.267254 0 0 1 41.591022,327.65773 22.267254,22.267254 0 0 1 63.858276,349.92499"
         style="fill:none;fill-opacity:1;stroke:#ff0000;stroke-width:0.44187;stroke-miterlimit:4;stroke-dasharray:none;stroke-opacity:1"
         id="path2854-9-1-65-2"
         clip-path="url(#clipPath1599)" />
      <path
         transform="translate(-5.0629164e-6,0.23178813)"
         d="m 587.83677,860.18408 a 22.267254,22.267254 0 0 1 -22.26725,22.26726 22.267254,22.267254 0 0 1 -22.26725,-22.26726 22.267254,22.267254 0 0 1 22.26725,-22.26725 22.267254,22.267254 0 0 1 22.26725,22.26725"
         style="fill:none;fill-opacity:1;stroke:#ff0000;stroke-width:0.44187;stroke-miterlimit:4;stroke-dasharray:none;stroke-opacity:1"
         id="path2854-9-1-8"
         clip-path="url(#clipPath1571)" />
      <path
         transform="translate(-5.0629164e-6,0.23178813)"
         d="m 338.93519,344.70319 a 22.267254,22.267254 0 0 1 -22.26725,22.26725 22.267254,22.267254 0 0 1 -22.26726,-22.26725 22.267254,22.267254 0 0 1 22.26726,-22.26726 22.267254,22.267254 0 0 1 22.26725,22.26726"
         style="fill:none;fill-opacity:1;stroke:#ff0000;stroke-width:0.44187;stroke-miterlimit:4;stroke-dasharray:none;stroke-opacity:1"
         id="path2854-9-1-97-0"
         clip-path="url(#clipPath1539)" />
      <path
         transform="translate(-5.0629164e-6,0.23178813)"
         d="m 606.92869,339.75342 a 22.267254,22.267254 0 0 1 -22.26725,22.26725 22.267254,22.267254 0 0 1 -22.26726,-22.26725 22.267254,22.267254 0 0 1 22.26726,-22.26726 22.267254,22.267254 0 0 1 22.26725,22.26726"
         style="fill:none;fill-opacity:1;stroke:#ff0000;stroke-width:0.44187;stroke-miterlimit:4;stroke-dasharray:none;stroke-opacity:1"
         id="path2854-9-1-99-1"
         clip-path="url(#clipPath1419)" />
      <path
         transform="translate(-5.0629164e-6,0.23178813)"
         d="m 627.4348,404.10016 a 22.267254,22.267254 0 0 1 -22.26726,22.26725 22.267254,22.267254 0 0 1 -22.26725,-22.26725 22.267254,22.267254 0 0 1 22.26725,-22.26726 22.267254,22.267254 0 0 1 22.26726,22.26726"
         style="fill:none;fill-opacity:1;stroke:#ff0000;stroke-width:0.44187;stroke-miterlimit:4;stroke-dasharray:none;stroke-opacity:1"
         id="path2854-9-1-14-4"
         clip-path="url(#clipPath1415)" />
      <path
         transform="translate(-5.0629164e-6,0.23178813)"
         d="m 929.75773,908.76837 a 22.267254,22.267254 0 0 1 -22.26725,22.26726 22.267254,22.267254 0 0 1 -22.26726,-22.26726 22.267254,22.267254 0 0 1 22.26726,-22.26725 22.267254,22.267254 0 0 1 22.26725,22.26725"
         style="fill:none;fill-opacity:1;stroke:#ff0000;stroke-width:0.44187;stroke-miterlimit:4;stroke-dasharray:none;stroke-opacity:1"
         id="path2854-9-1-47-82"
         clip-path="url(#clipPath1319)" />
      <path
         transform="translate(-5.0629164e-6,0.23178813)"
         d="m 841.90489,908.61761 a 22.267254,22.267254 0 0 1 -22.26726,22.26726 22.267254,22.267254 0 0 1 -22.26725,-22.26726 22.267254,22.267254 0 0 1 22.26725,-22.26725 22.267254,22.267254 0 0 1 22.26726,22.26725"
         style="fill:none;fill-opacity:1;stroke:#ff0000;stroke-width:0.44187;stroke-miterlimit:4;stroke-dasharray:none;stroke-opacity:1"
         id="path2854-9-1-47-46"
         clip-path="url(#clipPath1291)" />
      <path
         transform="translate(-5.0629164e-6,0.23178813)"
         d="m 760.59623,901.7475 a 22.267254,22.267254 0 0 1 -22.26725,22.26725 22.267254,22.267254 0 0 1 -22.26725,-22.26725 22.267254,22.267254 0 0 1 22.26725,-22.26726 22.267254,22.267254 0 0 1 22.26725,22.26726"
         style="fill:none;fill-opacity:1;stroke:#ff0000;stroke-width:0.44187;stroke-miterlimit:4;stroke-dasharray:none;stroke-opacity:1"
         id="path2854-9-1-47-115"
         clip-path="url(#clipPath1287)" />
      <path
         transform="translate(-5.0629164e-6,0.23178813)"
         d="m 679.86473,881.85669 a 22.267254,22.267254 0 0 1 -22.26726,22.26725 22.267254,22.267254 0 0 1 -22.26725,-22.26725 22.267254,22.267254 0 0 1 22.26725,-22.26725 22.267254,22.267254 0 0 1 22.26726,22.26725"
         style="fill:none;fill-opacity:1;stroke:#ff0000;stroke-width:0.44187;stroke-miterlimit:4;stroke-dasharray:none;stroke-opacity:1"
         id="path2854-9-1-47-95"
         clip-path="url(#clipPath1283)" />
      <path
         transform="translate(-5.0629164e-6,0.23178813)"
         d="m 1004.1003,911.81146 a 22.267254,22.267254 0 0 1 -22.26729,22.26726 22.267254,22.267254 0 0 1 -22.26726,-22.26726 22.267254,22.267254 0 0 1 22.26726,-22.26725 22.267254,22.267254 0 0 1 22.26729,22.26725"
         style="fill:none;fill-opacity:1;stroke:#ff0000;stroke-width:0.44187;stroke-miterlimit:4;stroke-dasharray:none;stroke-opacity:1"
         id="path2854-9-1-47-876"
         clip-path="url(#clipPath1279)" />
      <rect
         transform="translate(-5.0629164e-6,0.23178813)"
         style="fill:none;fill-opacity:1;stroke:#ff0000;stroke-width:1.84441;stroke-miterlimit:4;stroke-dasharray:none;stroke-opacity:1"
         id="rect13256"
         width="170.07874"
         height="151.18111"
         x="-333.8703"
         y="1015.7476"
         clip-path="url(#clipPath1275)" />
      <circle
         transform="translate(-5.0629164e-6,0.23178813)"
         style="fill:none;fill-opacity:1;stroke:#ff0000;stroke-width:1.84441;stroke-miterlimit:4;stroke-dasharray:none;stroke-opacity:1"
         id="path13360"
         cx="14.136439"
         cy="1095.7825"
         r="48.967129"
         clip-path="url(#clipPath1271)" />
      <rect
         style="fill:none;stroke:#ff0000;stroke-width:0.377953;stroke-miterlimit:4;stroke-dasharray:none;stroke-opacity:1"
         id="rect2502"
         width="2191.748"
         height="1095.6851"
         x="-657.92474"
         y="337.34576" />
      <rect
         style="fill:none;stroke:#ff0000;stroke-width:0.755906;stroke-miterlimit:4;stroke-dasharray:none;stroke-opacity:1"
         id="rect2506"
         width="170.41273"
         height="151.32085"
         x="-333.9541"
         y="1016.2841" />
      <circle
         style="fill:none;stroke:#ff0000;stroke-width:0.755906;stroke-miterlimit:4;stroke-dasharray:none;stroke-opacity:1"
         id="path2508"
         cx="14.296076"
         cy="1095.8336"
         r="48.790367" />
      <circle
         style="fill:none;stroke:#ff0000;stroke-width:0.755906;stroke-miterlimit:4;stroke-dasharray:none;stroke-opacity:1"
         id="path2510"
         cx="93.04705"
         cy="394.82346"
         r="22.110237" />
      <circle
         r="22.110237"
         cy="437.51715"
         cx="145.28758"
         id="path2510-3"
         style="fill:none;stroke:#ff0000;stroke-width:0.755906;stroke-miterlimit:4;stroke-dasharray:none;stroke-opacity:1" />
      <circle
         r="22.110237"
         cy="471.40091"
         cx="193.13036"
         id="path2510-8"
         style="fill:none;stroke:#ff0000;stroke-width:0.755906;stroke-miterlimit:4;stroke-dasharray:none;stroke-opacity:1" />
      <circle
         r="22.110237"
         cy="471.40091"
         cx="265.38037"
         id="path2510-2"
         style="fill:none;stroke:#ff0000;stroke-width:0.755906;stroke-miterlimit:4;stroke-dasharray:none;stroke-opacity:1" />
      <circle
         r="22.110237"
         cy="471.40091"
         cx="337.63037"
         id="path2510-0"
         style="fill:none;stroke:#ff0000;stroke-width:0.755906;stroke-miterlimit:4;stroke-dasharray:none;stroke-opacity:1" />
      <circle
         r="22.110237"
         cy="471.40091"
         cx="409.88043"
         id="path2510-6"
         style="fill:none;stroke:#ff0000;stroke-width:0.755906;stroke-miterlimit:4;stroke-dasharray:none;stroke-opacity:1" />
      <circle
         r="22.110237"
         cy="471.40091"
         cx="482.13043"
         id="path2510-7"
         style="fill:none;stroke:#ff0000;stroke-width:0.755906;stroke-miterlimit:4;stroke-dasharray:none;stroke-opacity:1" />
      <circle
         r="22.110237"
         cy="471.40091"
         cx="554.38043"
         id="path2510-91"
         style="fill:none;stroke:#ff0000;stroke-width:0.755906;stroke-miterlimit:4;stroke-dasharray:none;stroke-opacity:1" />
      <circle
         r="22.110237"
         cy="471.40091"
         cx="626.63043"
         id="path2510-62"
         style="fill:none;stroke:#ff0000;stroke-width:0.755906;stroke-miterlimit:4;stroke-dasharray:none;stroke-opacity:1" />
      <circle
         style="fill:none;stroke:#ff0000;stroke-width:0.755906;stroke-miterlimit:4;stroke-dasharray:none;stroke-opacity:1"
         id="path2510-62-3"
         cx="704.73029"
         cy="458.40088"
         r="22.110237" />
      <circle
         style="fill:none;stroke:#ff0000;stroke-width:0.755906;stroke-miterlimit:4;stroke-dasharray:none;stroke-opacity:1"
         id="path2510-62-8"
         cx="782.83026"
         cy="443.40091"
         r="22.110237" />
      <circle
         style="fill:none;stroke:#ff0000;stroke-width:0.755906;stroke-miterlimit:4;stroke-dasharray:none;stroke-opacity:1"
         id="path2510-62-9"
         cx="860.93036"
         cy="430.40091"
         r="22.110237" />
      <circle
         style="fill:none;stroke:#ff0000;stroke-width:0.755906;stroke-miterlimit:4;stroke-dasharray:none;stroke-opacity:1"
         id="path2510-62-84"
         cx="939.03046"
         cy="416.40088"
         r="22.110237" />
      <circle
         style="fill:none;stroke:#ff0000;stroke-width:0.755906;stroke-miterlimit:4;stroke-dasharray:none;stroke-opacity:1"
         id="path2510-62-4"
         cx="1017.1303"
         cy="405.40088"
         r="22.110237" />
      <circle
         r="22.110237"
         cy="489.90088"
         cx="1012.1304"
         id="path2510-62-4-1"
         style="fill:none;stroke:#ff0000;stroke-width:0.755906;stroke-miterlimit:4;stroke-dasharray:none;stroke-opacity:1" />
      <circle
         r="22.110237"
         cy="574.40088"
         cx="1008.1304"
         id="path2510-62-4-6"
         style="fill:none;stroke:#ff0000;stroke-width:0.755906;stroke-miterlimit:4;stroke-dasharray:none;stroke-opacity:1" />
      <circle
         r="22.110237"
         cy="658.90088"
         cx="1002.1303"
         id="path2510-62-4-5"
         style="fill:none;stroke:#ff0000;stroke-width:0.755906;stroke-miterlimit:4;stroke-dasharray:none;stroke-opacity:1" />
      <circle
         r="22.110237"
         cy="743.40094"
         cx="997.13043"
         id="path2510-62-4-59"
         style="fill:none;stroke:#ff0000;stroke-width:0.755906;stroke-miterlimit:4;stroke-dasharray:none;stroke-opacity:1" />
      <circle
         r="22.110237"
         cy="827.90094"
         cx="992.13031"
         id="path2510-62-4-8"
         style="fill:none;stroke:#ff0000;stroke-width:0.755906;stroke-miterlimit:4;stroke-dasharray:none;stroke-opacity:1" />
      <circle
         r="22.110237"
         cy="912.40094"
         cx="981.38031"
         id="path2510-62-4-62"
         style="fill:none;stroke:#ff0000;stroke-width:0.755906;stroke-miterlimit:4;stroke-dasharray:none;stroke-opacity:1" />
      <path
         style="fill:none;stroke:#0000ff;stroke-width:3.26929;stroke-linecap:butt;stroke-linejoin:miter;stroke-miterlimit:4;stroke-dasharray:none;stroke-opacity:1"
         d="M 26.793395,338.42159 194.09386,475.0282"
         id="path2674" />
      <circle
         r="22.110237"
         cy="534.40088"
         cx="677.30902"
         id="path2510-62-9-95"
         style="fill:none;stroke:#ff0000;stroke-width:0.755906;stroke-miterlimit:4;stroke-dasharray:none;stroke-opacity:1" />
      <circle
         r="22.110237"
         cy="597.40094"
         cx="727.98749"
         id="path2510-62-9-89"
         style="fill:none;stroke:#ff0000;stroke-width:0.755906;stroke-miterlimit:4;stroke-dasharray:none;stroke-opacity:1" />
      <circle
         r="22.110237"
         cy="660.40094"
         cx="778.66595"
         id="path2510-62-9-5"
         style="fill:none;stroke:#ff0000;stroke-width:0.755906;stroke-miterlimit:4;stroke-dasharray:none;stroke-opacity:1" />
      <circle
         r="22.110237"
         cy="723.40088"
         cx="829.34454"
         id="path2510-62-9-4"
         style="fill:none;stroke:#ff0000;stroke-width:0.755906;stroke-miterlimit:4;stroke-dasharray:none;stroke-opacity:1" />
      <circle
         r="22.110237"
         cy="786.401"
         cx="880.02325"
         id="path2510-62-9-40"
         style="fill:none;stroke:#ff0000;stroke-width:0.755906;stroke-miterlimit:4;stroke-dasharray:none;stroke-opacity:1" />
      <circle
         r="22.110237"
         cy="849.40094"
         cx="930.70184"
         id="path2510-62-9-0"
         style="fill:none;stroke:#ff0000;stroke-width:0.755906;stroke-miterlimit:4;stroke-dasharray:none;stroke-opacity:1" />
      <circle
         r="22.110237"
         cy="908.45032"
         cx="907.72552"
         id="path2510-62-9-86"
         style="fill:none;stroke:#ff0000;stroke-width:0.755906;stroke-miterlimit:4;stroke-dasharray:none;stroke-opacity:1" />
      <circle
         r="22.110237"
         cy="909.15741"
         cx="818.98358"
         id="path2510-62-9-94"
         style="fill:none;stroke:#ff0000;stroke-width:0.755906;stroke-miterlimit:4;stroke-dasharray:none;stroke-opacity:1" />
      <circle
         r="22.110237"
         cy="902.43988"
         cx="738.01984"
         id="path2510-62-9-1"
         style="fill:none;stroke:#ff0000;stroke-width:0.755906;stroke-miterlimit:4;stroke-dasharray:none;stroke-opacity:1" />
      <circle
         r="22.110237"
         cy="882.99445"
         cx="657.40973"
         id="path2510-62-9-05"
         style="fill:none;stroke:#ff0000;stroke-width:0.755906;stroke-miterlimit:4;stroke-dasharray:none;stroke-opacity:1" />
      <circle
         r="22.110237"
         cy="860.19037"
         cx="565.13226"
         id="path2510-62-9-45"
         style="fill:none;stroke:#ff0000;stroke-width:0.755906;stroke-miterlimit:4;stroke-dasharray:none;stroke-opacity:1" />
      <circle
         r="22.110237"
         cy="536.1991"
         cx="618.38068"
         id="path2510-62-9-2"
         style="fill:none;stroke:#ff0000;stroke-width:0.755906;stroke-miterlimit:4;stroke-dasharray:none;stroke-opacity:1" />
      <circle
         r="22.110237"
         cy="600.99738"
         cx="608.13092"
         id="path2510-62-9-49"
         style="fill:none;stroke:#ff0000;stroke-width:0.755906;stroke-miterlimit:4;stroke-dasharray:none;stroke-opacity:1" />
      <circle
         r="22.110237"
         cy="665.79559"
         cx="597.88141"
         id="path2510-62-9-6"
         style="fill:none;stroke:#ff0000;stroke-width:0.755906;stroke-miterlimit:4;stroke-dasharray:none;stroke-opacity:1" />
      <circle
         r="22.110237"
         cy="730.59387"
         cx="589.63153"
         id="path2510-62-9-21"
         style="fill:none;stroke:#ff0000;stroke-width:0.755906;stroke-miterlimit:4;stroke-dasharray:none;stroke-opacity:1" />
      <circle
         r="22.110237"
         cy="795.39209"
         cx="579.38177"
         id="path2510-62-9-3"
         style="fill:none;stroke:#ff0000;stroke-width:0.755906;stroke-miterlimit:4;stroke-dasharray:none;stroke-opacity:1" />
      <circle
         r="22.110237"
         cy="526.94226"
         cx="246.27348"
         id="path2510-62-9-26"
         style="fill:none;stroke:#ff0000;stroke-width:0.755906;stroke-miterlimit:4;stroke-dasharray:none;stroke-opacity:1" />
      <circle
         r="22.110237"
         cy="582.48364"
         cx="299.41669"
         id="path2510-62-9-50"
         style="fill:none;stroke:#ff0000;stroke-width:0.755906;stroke-miterlimit:4;stroke-dasharray:none;stroke-opacity:1" />
      <circle
         r="22.110237"
         cy="638.02496"
         cx="352.55969"
         id="path2510-62-9-88"
         style="fill:none;stroke:#ff0000;stroke-width:0.755906;stroke-miterlimit:4;stroke-dasharray:none;stroke-opacity:1" />
      <circle
         r="22.110237"
         cy="693.56635"
         cx="405.70294"
         id="path2510-62-9-63"
         style="fill:none;stroke:#ff0000;stroke-width:0.755906;stroke-miterlimit:4;stroke-dasharray:none;stroke-opacity:1" />
      <circle
         r="22.110237"
         cy="749.10773"
         cx="458.84601"
         id="path2510-62-9-68"
         style="fill:none;stroke:#ff0000;stroke-width:0.755906;stroke-miterlimit:4;stroke-dasharray:none;stroke-opacity:1" />
      <circle
         r="22.110237"
         cy="804.64899"
         cx="511.98895"
         id="path2510-62-9-87"
         style="fill:none;stroke:#ff0000;stroke-width:0.755906;stroke-miterlimit:4;stroke-dasharray:none;stroke-opacity:1" />
      <circle
         r="22.110237"
         cy="404.99023"
         cx="604.73016"
         id="path2510-62-9-55"
         style="fill:none;stroke:#ff0000;stroke-width:0.755906;stroke-miterlimit:4;stroke-dasharray:none;stroke-opacity:1" />
      <circle
         r="22.110237"
         cy="408.52579"
         cx="252.59105"
         id="path2510-62-9-9"
         style="fill:none;stroke:#ff0000;stroke-width:0.755906;stroke-miterlimit:4;stroke-dasharray:none;stroke-opacity:1" />
      <path
         id="path2674-6"
         d="M 194.31817,475.09392 567.94259,859.97988"
         style="fill:none;stroke:#0000ff;stroke-width:3.26929;stroke-linecap:butt;stroke-linejoin:miter;stroke-miterlimit:4;stroke-dasharray:none;stroke-opacity:1" />
      <path
         id="path2674-2"
         d="M 323.00954,337.48775 193.82418,474.5444"
         style="fill:none;stroke:#0000ff;stroke-width:3.26929;stroke-linecap:butt;stroke-linejoin:miter;stroke-miterlimit:4;stroke-dasharray:none;stroke-opacity:1" />
      <path
         id="path2674-8"
         d="m 585.07759,336.53452 42.4822,135.67786"
         style="fill:none;stroke:#0000ff;stroke-width:3.26929;stroke-linecap:butt;stroke-linejoin:miter;stroke-miterlimit:4;stroke-dasharray:none;stroke-opacity:1" />
      <path
         style="fill:none;stroke:#0000ff;stroke-width:3.26929;stroke-linecap:butt;stroke-linejoin:miter;stroke-miterlimit:4;stroke-dasharray:none;stroke-opacity:1"
         d="m 194.63037,475.15089 432.87502,-2.3125 391.12501,-69.375 -17.7436,-70.24448"
         id="path2877" />
      <path
         style="fill:none;stroke:#0000ff;stroke-width:3.26929;stroke-linecap:butt;stroke-linejoin:miter;stroke-miterlimit:4;stroke-dasharray:none;stroke-opacity:1"
         d="m 1018.7412,403.8412 -31.11271,508.3214 -224.8106,-3.63669 -193.885,-46.5679 58.6899,-388.95293 358.7462,438.73766"
         id="path2879" />
      <path
         style="fill:none;stroke:#0000ff;stroke-width:2.13543;stroke-linecap:butt;stroke-linejoin:miter;stroke-miterlimit:4;stroke-dasharray:none;stroke-opacity:1"
         d="m 1366.6377,453.78062 c 0,0 17.7708,16.75706 15.9313,33.49137 -1.8339,16.68374 -10.1505,13.74943 -10.9816,23.78428 -1.4671,17.713 9.1533,36.45218 10.2531,52.3259 1.2291,17.74008 -16.2635,22.98097 -16.2635,22.98097"
         id="path2881"
         sodipodi:nodetypes="csssc" />
      <path
         sodipodi:nodetypes="csssc"
         id="path2881-5"
         d="m 1373.3431,444.11027 c 0,0 22.953,19.16596 20.5771,38.30591 -2.3687,19.08211 -13.1105,15.72598 -14.184,27.20339 -1.8949,20.25933 11.8225,41.69235 13.243,59.848 1.5876,20.2903 -21.0061,26.28459 -21.0061,26.28459"
         style="fill:none;stroke:#0000ff;stroke-width:2.13543;stroke-linecap:butt;stroke-linejoin:miter;stroke-miterlimit:4;stroke-dasharray:none;stroke-opacity:1" />
      <path
         id="path5248"
         d="m -170.34724,336.22411 0.0884,7.07107"
         style="fill:none;stroke:#000000;stroke-width:0.999999px;stroke-linecap:butt;stroke-linejoin:miter;stroke-opacity:1" />
      <path
         id="path1280"
         style="fill:none;fill-opacity:1;stroke:#0000ff;stroke-width:1.93656;stroke-opacity:1"
         d="m 1313.492,337.30026 c 5.3473,2.08256 9.2806,4.32889 9.2806,5.42378 0,2.92116 -6.7932,9.40645 -21.459,20.48632 -6.0248,4.55169 -12.3608,11.07228 -14.0801,14.49026 -4.0026,7.95738 -2.7942,23.03225 3.3496,41.77342 5.1438,15.69049 11.7024,21.77641 25.166,23.34961 4.3875,0.51267 15.5722,1.76553 24.8536,2.78515 18.3756,2.01859 23.9153,4.86328 31.3515,16.09571 l 4.2969,6.49023 v -11.06055 c 0,-10.65886 -0.2684,-11.24482 -7.3555,-16.0664 -6.1574,-4.18908 -11.4065,-5.4411 -32.2402,-7.6875 -13.6871,-1.47579 -26.5601,-3.60315 -28.6055,-4.72852 -3.9775,-2.18845 -12.0176,-28.25229 -12.0176,-38.95701 0,-6.41072 4.063,-10.9601 21.1836,-23.73245 11.2962,-8.42721 21.4825,-22.40768 21.5312,-28.64167" />
      <path
         id="path1276"
         style="fill:none;fill-opacity:1;stroke:#0000ff;stroke-width:1.93656;stroke-opacity:1"
         d="m -170.44929,336.99507 c 0.47735,1.23647 1.00105,2.5525 1.57557,3.97111 4.39068,10.84131 6.83256,20.72988 7.88088,31.9121 1.25329,13.36876 2.76775,18.4986 8.66404,29.3379 11.34456,20.85487 20.07103,29.38764 32.95899,32.23048 5.95918,1.31444 12.55336,3.3512 14.65429,4.52538 2.12258,1.1862 14.004965,2.16839 26.740235,2.21289 19.01311,0.0648 28.23731,1.27596 54.11721,7.10352 18.3680099,4.13602 33.2910599,8.58056 36.28906,10.80859 12.29355,9.13609 20.174211,37.53543 17.347651,62.51368 -2.799271,24.73726 -2.042991,46.27533 1.94143,55.29687 5.19927,11.7721 10.36093,16.37305 18.36718,16.37305 8.88525,0 15.80534,-3.83209 34.21092,-18.9375 14.15728,-11.6187 15.873234,-12.47852 24.849644,-12.47852 6.096,0 16.65759,2.51912 28.72067,6.85156 22.35972,8.03043 24.74963,8.17488 46.84572,2.8418 13.41612,-3.23808 18.25463,-3.64108 24.1406,-2.01172 14.55938,4.03038 39.44315,23.24464 50.38088,38.90235 3.51296,5.0289 10.0261,13.35489 14.47264,18.50195 11.61827,13.44839 12.72665,22.94294 4.75586,40.7207 -4.8604,10.84059 -5.96289,15.81657 -5.96289,26.91603 0,9.86579 -1.05275,15.63489 -3.82031,20.94337 -4.70918,9.03273 -4.89551,17.51384 -0.47656,21.62107 1.83836,1.70868 8.82958,4.67562 15.53711,6.59181 10.84501,3.09814 12.5037,4.23986 14.97657,10.32422 1.52942,3.76316 3.24612,13.16315 3.81445,20.8887 l 1.03321,14.04684 -11.40431,9.0215 c -6.27243,4.96195 -14.12069,12.20364 -17.44139,16.09179 -5.28756,6.19098 -6.03401,8.46342 -5.9961,18.29103 0.048,12.88943 4.43659,24.26944 12.5371,32.51172 11.32566,11.52374 28.10132,16.6797 61.41602,18.87303 16.8258,1.10786 29.5553,3.17726 41.1269,6.6875 33.0918,10.03827 51.8491,8.60942 77.627,-5.91405 6.9141,-3.89549 26.1382,-14.36973 42.7187,-23.27539 33.4734,-17.97857 36.3726,-20.14564 41.9415,-31.36328 3.50421,-7.05891 3.75491,-10.04269 2.60741,-30.91797 -1.72161,-31.31649 -0.6538,-33.08682 30.4043,-50.46486 4.3818,-2.4517 10.9579,-9.02095 15.2793,-15.26173 13.9258,-20.11124 16.0479,-22.19139 22.6484,-22.19139 4.5901,0 7.8457,1.84743 12.9746,7.36328 11.197,12.04176 11.773,14.32315 7.166,28.416 -2.2164,6.78006 -7.8863,19.60679 -12.5976,28.50392 -7.2345,13.662 -8.9713,19.1563 -11.1739,35.34376 -1.4339,10.54178 -3.8974,26.27346 -5.4746,34.95896 -3.9988,22.02316 -1.8433,30.51141 12.1895,48.02151 3.8946,4.85975 8.2088,11.04113 9.5879,13.73631 3.5049,6.84923 3.1195,24.60707 -0.7969,36.71683 -4.2586,13.16791 -4.3286,23.80222 -0.2109,31.98826 3.121,6.20473 3.1161,7.07283 -0.066,16.70313 -3.8202,11.55374 -2.8675,18.56994 3.3281,24.50394 5.1669,4.9488 17.1587,5.2395 38.7715,0.9414 17.4242,-3.4651 24.4561,-2.6403 38.0937,4.4648 5.3104,2.7667 15.1543,7.0816 21.875,9.5879 14.3368,5.3464 20.2575,10.4754 23.3203,20.2012 3.1996,10.1603 11.8802,27.3719 18.5293,36.7402 4.9887,7.0287 6.9406,8.233 15.1582,9.3536 5.7651,0.7862 15.3025,0.1308 24.5352,-1.6856 19.988,-3.9321 26.0422,-3.7502 31.8633,0.957 4.5686,3.6945 4.8973,5.1695 5.5097,24.709 0.6395,20.4029 0.7586,20.8798 6.5684,26.2129 5.1705,4.7461 8.0633,5.6045 22.9199,6.8125 20.5173,1.6683 31.5743,6.5254 38.166,16.7657 5.6614,8.7948 10.2511,29.908 9.0489,41.623 -0.7615,7.4197 -0.079,9.5388 5.125,15.9219 l 6.0039,7.3652 h 16.1914 c 10.988,0 18.0562,-0.9922 21.998,-3.0878 3.8408,-2.0422 8.1753,-2.684 12.7969,-1.8946 3.844,0.6566 11.93481,1.3183 17.98051,1.4708 l 10.9922,0.2774 10.3437,-11.4238 10.3418,-11.4258 8.6094,5.1875 c 11.3239,6.8224 24.7488,7.152 31.3573,0.7695 5.6775,-5.4834 17.6702,-7.0301 34.8262,-4.4921 17.673,2.6144 26.1108,-8.8543 31.4004,-42.6817 2.1239,-13.5823 4.6741,-22.2419 8.7207,-29.6133 8.2445,-15.0182 7.6886,-21.5954 -2.6895,-31.8183 l -8.4082,-8.2813 1.9082,-9.2012 c 3.7814,-18.227 -1.8927,-29.7335 -18.3515,-37.2167 -11.0552,-5.0263 -13.8,-8.594 -20.0801,-26.1075 -2.4071,-6.7126 -8.1492,-17.2019 -12.7617,-23.3086 -7.2536,-9.60314 -8.3868,-12.38074 -8.3868,-20.56254 0,-5.20272 1.2711,-15.10028 2.8262,-21.99414 2.6333,-11.67246 2.5694,-13.46982 -0.9531,-26.13282 -3.9143,-14.07118 -4.8905,-29.39184 -2.1543,-33.82617 0.8639,-1.39994 9.3524,-10.75313 18.8633,-20.78513 16.1045,-16.98705 17.4527,-19.03854 19.6172,-29.85355 4.4205,-22.08688 8.6928,-34.03687 27.2636,-76.25389 2.3378,-5.31436 10.181,-16.36011 17.4297,-24.54494 12.617,-14.24641 22.0987,-30.53611 22.1367,-38.041 0.026,-5.09754 8.6164,-13.16407 14.0176,-13.16407 2.883,0 11.006,5.29175 21.5742,14.05664 26.9542,22.35504 40.7878,26.55448 52.3418,15.88672 4.6841,-4.3247 6.7816,-9.09221 10.5352,-23.94922 2.5776,-10.20235 4.6875,-20.21651 4.6875,-22.25196 0,-6.36277 9.8075,-33.61136 13.6562,-37.9414 2.0181,-2.27046 7.2917,-5.21791 11.7188,-6.55079 13.4394,-4.04612 23.4565,-11.21432 29.7402,-21.28125 7.8003,-12.4966 13.1567,-17.41282 21.2832,-19.53515 8.6803,-1.78318 10.9066,-15.4878 2.5254,-13.44923 -13.3966,3.30431 -22.5789,9.9651 -31.0137,22.4961 -7.0219,10.43212 -10.2193,13.31926 -19.0996,17.25196 -22.6571,10.03386 -23.778,10.90156 -29.3711,22.76561 -2.9336,6.22263 -6.6625,17.26836 -8.2871,24.54494 -7.1165,31.87396 -11.1198,46.23982 -13.5976,48.78712 -5.9604,6.1276 -15.5727,2.13174 -36.045,-14.98633 -21.8423,-18.26379 -29.046,-20.76258 -41.8593,-14.51174 -7.5685,3.69225 -11.2361,8.95042 -14.2383,20.41213 -2.6702,10.19489 -8.9045,20.56074 -17.1445,28.50779 -10.6138,10.23642 -19.2065,23.90958 -26.1543,41.62305 -3.702,9.43835 -8.82,21.39852 -11.3731,26.57813 -4.4932,9.11535 -8.592,23.60765 -11.2402,39.74026 -1.0439,6.35902 -4.3882,11.08075 -18.0781,25.52538 -9.2386,9.74786 -18.1871,20.5516 -19.8868,24.00783 -3.9102,7.95061 -4.0233,26.8329 -0.2264,37.89645 3.5509,10.34717 3.5948,17.03255 0.2189,33.62113 -2.4261,11.92124 -2.4466,16.60364 -0.1251,28.47854 0.4488,2.29672 4.2813,8.48124 8.5156,13.74414 4.234,5.2628 9.4154,14.2795 11.5137,20.0371 7.8518,21.5462 12.6625,27.7853 26.0702,33.8028 12.2688,5.5065 14.9569,11.0994 12.2149,25.4277 -2.5446,13.2971 -1.8641,15.3897 8.2832,25.4258 3.7629,3.7217 6.8418,7.9379 6.8418,9.3691 0,1.4312 -2.1641,5.9641 -4.8086,10.0723 -4.4921,6.9785 -8.4368,22.2316 -11.3399,43.8457 -0.6784,5.0505 -3.1719,12.118 -5.541,15.707 -3.6562,5.5389 -5.3007,6.4461 -10.8847,6.002 -29.8434,-2.374 -32.5735,-2.1128 -39.0663,3.748 -7.6364,6.8929 -13.1569,7.0477 -25.1132,0.7032 -12.4494,-6.606 -20.6049,-4.4445 -30.709,8.1386 l -7.1896,8.9532 -18.16011,-1.2403 c -17.6887,-1.2077 -18.3841,-1.0937 -26.8262,4.4102 -11.7504,7.6609 -13.417,8.0887 -19.418,4.9746 -7.3373,-3.8073 -9.7618,-9.5897 -10.2031,-24.3281 -0.6111,-20.4238 -5.8389,-34.5806 -17.039,-46.1368 -10.8646,-11.2097 -17.936,-14.0253 -40.0528,-15.9472 -8.6487,-0.7516 -15.8431,-2.4275 -17.4336,-4.0625 -1.9425,-1.997 -2.7098,-7.8775 -2.7148,-20.8067 -0.011,-29.2802 -8.3303,-38.2424 -33.293,-35.8691 -7.422,0.7056 -20.0974,1.8076 -28.168,2.4473 l -14.6738,1.1621 -6.4336,-10.5528 c -3.539,-5.8042 -8.9141,-16.7392 -11.9433,-24.2988 -6.2183,-15.5177 -14.7016,-25.079 -25.2989,-28.5117 -3.9571,-1.2818 -14.7738,-5.8653 -24.0371,-10.1856 -21.1249,-9.8524 -27.662,-10.7349 -48.5761,-6.5586 -20.0446,4.0025 -29.7726,3.5512 -30.6895,-1.4238 -0.353,-1.9152 1.155,-7.29814 3.3516,-11.96294 l 3.9941,-8.4824 -4.0293,-9.36329 c -4.3131,-10.02399 -4.2524,-12.25289 0.9961,-36.31056 5.0031,-22.9324 2.0894,-34.34068 -13.9785,-54.72072 -9.0073,-11.42449 -9.7793,-13.21962 -9.7793,-22.77343 0,-5.70422 1.7065,-18.67873 3.791,-28.83202 2.0845,-10.15339 3.8041,-21.20023 3.8203,-24.54882 0.04,-8.13921 3.2313,-17.0897 10.7617,-30.18361 3.4328,-5.96871 8.5209,-17.8859 11.3067,-26.48243 4.4369,-13.69178 4.7902,-16.56794 2.8593,-23.19336 -4.6671,-16.01448 -25.0751,-32.44789 -36.9628,-29.76368 -9.4889,2.14253 -13.9269,6.10338 -24.9414,22.26369 -8.6727,12.72403 -12.1923,16.1174 -22.4512,21.64255 -6.6915,3.60382 -15.0335,9.30663 -18.5371,12.67189 -10.93411,10.50213 -11.82281,13.90288 -11.29501,43.16991 l 0.4766,26.44925 -5.5195,5.9492 c -3.0354,3.27228 -15.9267,11.16204 -28.6485,17.53127 -12.7217,6.36926 -29.033,15.30243 -36.2461,19.85155 -21.3532,13.46699 -30.5463,16.60577 -48.0039,16.39257 -10.6571,-0.13002 -20.1904,-1.74316 -31.5136,-5.33008 -11.5513,-3.65919 -23.5564,-5.65198 -41.6133,-6.91212 -38.6321,-2.69597 -54.12049,-8.68569 -61.63869,-23.83593 -4.52299,-9.11444 -5.24549,-18.67226 -1.89649,-25.10543 1.20579,-2.31629 8.05985,-8.59922 15.23048,-13.96097 7.72131,-5.7735 14.01653,-12.17647 15.43752,-15.70311 2.7089,-6.72332 1.6744,-29.63115 -1.88871,-41.83204 -3.01799,-10.3346 -7.59931,-14.39966 -20.48628,-18.17579 -6.0816,-1.78198 -11.77153,-3.92001 -12.64457,-4.75196 -0.87295,-0.83187 0.2007,-5.11825 2.38674,-9.52343 2.93847,-5.92145 3.97463,-11.70045 3.97463,-22.16797 0,-11.85726 0.9696,-16.20141 5.96091,-26.73438 5.42314,-11.44416 5.84092,-13.66106 4.63673,-24.60351 -1.59836,-14.52344 -2.74224,-16.89419 -15.18554,-31.50196 -23.51758,-27.6083 -31.49038,-35.59849 -44.35941,-44.44727 -20.09635,-13.81823 -28.6789,-15.41306 -53.04295,-9.8535 l -19.51561,4.45311 -21.85353,-7.53515 c -23.84769,-8.22368 -37.13269,-9.44237 -46.730464,-4.28907 -3.12416,1.67745 -12.84541,8.87139 -21.60352,15.98633 -19.07028,15.49234 -23.41043,16.26652 -28.92189,5.16016 -4.43508,-8.93728 -5.03338,-24.90593 -1.89842,-50.60938 4.02433,-32.99459 -7.09118,-66.58382 -25.246111,-76.29492 -2.82742,-1.51237 -22.1643901,-6.38677 -42.97262,-10.83202 -32.89992,-7.02834 -39.84159,-7.92774 -53.2266,-6.89845 -8.46561,0.65088 -16.20079,0.4329 -17.18944,-0.48437 -0.98865,-0.91731 -7.384825,-2.82526 -14.212875,-4.24024 -14.66193,-3.0382 -20.47888,-8.29304 -30.4297,-27.48634 -5.00043,-9.64486 -6.79151,-15.9278 -7.79297,-27.34375 -0.87122,-9.93101 -3.39511,-20.00621 -7.65041,-30.53125 -0.24491,-0.60548 -0.48162,-1.20068 -0.71062,-1.78722" />
      <path
         sodipodi:nodetypes="cc"
         id="path2184"
         d="m -716.90922,334.9275 2303.58572,0.33274"
         style="fill:none;stroke:#000000;stroke-width:1px;stroke-linecap:butt;stroke-linejoin:miter;stroke-opacity:1" />
    </g>
  </g>
</svg>
